<svg width="66" height="60" viewBox="0 0 66 60" fill="none" xmlns="http://www.w3.org/2000/svg">
<path d="M26.4605 0.00611877C26.4099 0.0154114 26.2859 0.0618629 26.1848 0.108311C25.7114 0.331276 25.5736 0.391659 25.5322 0.391659C25.5046 0.391659 25.4587 0.424175 25.4265 0.461334C25.3944 0.498497 25.33 0.531013 25.2795 0.531013C25.2335 0.531013 25.114 0.568172 25.0221 0.619267C24.7464 0.758621 24.4477 0.893326 24.3374 0.925842C24.2869 0.939777 24.2133 0.981583 24.1858 1.01874C24.1536 1.0559 24.0755 1.08842 24.0157 1.08842C23.9514 1.08842 23.8503 1.13023 23.786 1.18132C23.7216 1.23241 23.6251 1.27422 23.5792 1.27422C23.5286 1.27422 23.4367 1.31603 23.3724 1.36712C23.3081 1.41822 23.2253 1.46002 23.1932 1.46002C23.1564 1.46002 23.0507 1.50183 22.9588 1.55293C22.8623 1.60402 22.752 1.64582 22.7107 1.64582C22.6693 1.64582 22.6096 1.67834 22.5774 1.7155C22.5452 1.75266 22.4901 1.78518 22.4533 1.78518C22.4166 1.78518 22.2925 1.84092 22.1776 1.91059C21.9892 2.02208 21.9754 2.0453 21.9984 2.17072C22.0351 2.34258 22.1041 2.43549 22.2098 2.43549C22.2511 2.43549 22.3338 2.47729 22.3936 2.52839C22.4533 2.57948 22.5223 2.62129 22.5544 2.62129C22.6463 2.62129 23.1426 3.13689 23.2759 3.36914C23.3448 3.48527 23.4138 3.6432 23.4275 3.71752C23.4459 3.79184 23.4873 3.91261 23.5194 3.99158C23.5516 4.0659 23.5884 4.27493 23.6022 4.45609C23.6159 4.6326 23.6573 4.90666 23.6895 5.05994C23.74 5.28755 23.7492 7.71227 23.7492 17.7642C23.7492 29.3861 23.7446 30.2222 23.6711 30.6589C23.6251 30.919 23.5884 31.2674 23.5884 31.4346C23.5884 31.6343 23.5562 31.8015 23.4965 31.9362C23.4459 32.0477 23.4046 32.2057 23.4046 32.2846C23.4046 32.3589 23.3724 32.4658 23.3356 32.5169C23.2989 32.5633 23.2667 32.6377 23.2667 32.6702C23.2667 32.7724 23.0415 33.0882 22.8301 33.2926C22.5406 33.576 22.5131 33.5945 22.3798 33.627C22.3109 33.6456 22.2419 33.6781 22.2281 33.706C22.2144 33.7292 22.1546 33.7664 22.0949 33.7896C22.003 33.8268 21.9892 33.8593 21.9938 34.0312L22.003 34.2309H25.2887H28.5743L28.5881 34.059C28.6019 33.915 28.5789 33.8639 28.4732 33.771C28.4043 33.706 28.2986 33.6456 28.2435 33.627C28.078 33.5852 27.8299 33.3948 27.6507 33.1765C27.5588 33.0696 27.4669 32.9675 27.4485 32.9535C27.4301 32.9396 27.4025 32.8699 27.3841 32.7956C27.3658 32.7259 27.3198 32.633 27.2876 32.5958C27.2509 32.5587 27.2187 32.4751 27.2187 32.4147C27.2187 32.3497 27.1865 32.2382 27.1498 32.1639C27.113 32.0895 27.0579 31.8341 27.0349 31.5972C27.0073 31.3603 26.966 31.0723 26.943 30.9561C26.92 30.8307 26.9016 24.7085 26.897 15.5067C26.897 0.400951 26.897 0.2616 26.8051 0.150116C26.7086 0.0247002 26.6075 -0.0171051 26.4605 0.00611877Z" fill="#665459"/>
<path d="M0.110679 4.52576C0.0922974 4.5397 0.0555345 4.61402 0.0279623 4.68834C-0.0133959 4.80911 -0.00420519 4.85092 0.0785113 4.95311C0.12906 5.01814 0.225563 5.08781 0.289898 5.10639C0.354233 5.12498 0.441545 5.18072 0.487498 5.22717C0.533452 5.27826 0.597787 5.31542 0.63455 5.31542C0.671313 5.31542 0.777006 5.41761 0.873509 5.54767C0.965416 5.67309 1.05732 5.77993 1.0757 5.77993C1.09409 5.77993 1.12166 5.84031 1.14004 5.91463C1.15383 5.98895 1.19518 6.07721 1.23195 6.10508C1.26411 6.13295 1.30547 6.24443 1.32385 6.35127C1.34224 6.45811 1.38359 6.59281 1.42036 6.64855C1.45712 6.70429 1.48469 6.85294 1.48469 6.97835C1.48469 7.10377 1.52145 7.31744 1.56741 7.45679C1.64093 7.69369 1.64553 8.39045 1.64553 19.3667C1.64553 30.3291 1.64093 31.0444 1.56741 31.3092C1.52145 31.4671 1.48469 31.6854 1.48469 31.7969C1.4801 31.9084 1.45252 32.0524 1.41576 32.1174C1.379 32.1824 1.35143 32.2707 1.34683 32.3171C1.34683 32.3636 1.2825 32.5401 1.20437 32.712C1.03894 33.065 0.570215 33.5713 0.354233 33.6224C0.280707 33.641 0.165823 33.706 0.101488 33.771C0.000390172 33.8686 -0.0133959 33.9104 0.00958089 34.059L0.0371531 34.2309H10.3537H20.6703L20.6979 33.2554C20.7163 32.7166 20.753 32.1453 20.7806 31.9781C20.8128 31.8108 20.8541 31.1327 20.8771 30.4684C20.9001 29.8042 20.9323 29.1724 20.9506 29.0656C20.9644 28.9588 20.969 28.8194 20.9506 28.7544C20.8955 28.5314 20.5554 28.5546 20.5554 28.7776C20.5554 28.8287 20.5371 28.8659 20.5141 28.8659C20.4911 28.8659 20.4589 28.9216 20.4451 28.9959C20.4268 29.0656 20.3119 29.3211 20.1878 29.5626C20.0591 29.8042 19.9259 30.0736 19.8891 30.1525C19.8523 30.2362 19.7972 30.3058 19.7742 30.3058C19.7467 30.3058 19.7283 30.3291 19.7283 30.3616C19.7283 30.422 19.5123 30.761 19.425 30.84C19.3928 30.8632 19.3652 30.9097 19.356 30.9422C19.3009 31.1187 18.0418 32.3497 17.9131 32.3497C17.8947 32.3497 17.8212 32.4008 17.7431 32.4658C17.6695 32.5308 17.5822 32.5819 17.5455 32.5819C17.5133 32.5819 17.4765 32.6144 17.4582 32.6516C17.4444 32.6887 17.3938 32.7213 17.3479 32.7213C17.2973 32.7213 17.2054 32.7631 17.1411 32.8142C17.0767 32.8653 16.9986 32.9071 16.9711 32.9071C16.9389 32.9071 16.8608 32.9396 16.7964 32.9767C16.6218 33.0743 16.2955 33.1858 16.029 33.2415C15.9049 33.2694 15.7487 33.3158 15.6844 33.3483C15.62 33.3809 15.473 33.418 15.3581 33.432C15.2386 33.4459 14.9905 33.4877 14.8066 33.5249C14.1725 33.6596 12.9455 33.7153 9.98611 33.7339C7.37135 33.7478 7.01751 33.7432 6.58554 33.6689C6.29603 33.6178 6.06167 33.5527 5.99274 33.5016C5.933 33.4552 5.85947 33.418 5.82731 33.418C5.75838 33.418 5.34939 33.0139 5.29425 32.8885C5.26667 32.8327 5.22072 32.7398 5.18396 32.6748C5.14719 32.6098 5.11503 32.4937 5.11503 32.4193C5.11503 32.3404 5.08745 32.2475 5.05988 32.2196C5.01393 32.1731 4.99555 30.7471 4.98636 25.4796C4.97717 18.9394 4.97717 18.7954 5.06448 18.6885L5.15179 18.5771L7.60571 18.5631C8.95215 18.5538 10.4778 18.5724 10.9971 18.6003C13.0834 18.7118 13.3683 18.735 13.5659 18.8047C13.6762 18.8465 13.8554 18.879 13.9611 18.879C14.0714 18.879 14.2552 18.9208 14.3747 18.9719C14.4942 19.023 14.632 19.0648 14.6872 19.0648C14.7423 19.0694 14.871 19.1066 14.9721 19.1577C15.0732 19.2088 15.1927 19.246 15.2386 19.2506C15.2846 19.2506 15.3305 19.2785 15.3443 19.3156C15.3581 19.3528 15.4316 19.3992 15.5051 19.4132C15.5787 19.4318 15.6522 19.4689 15.6706 19.5014C15.6935 19.5339 15.7855 19.6036 15.8774 19.664C16.075 19.7801 16.4564 20.1982 16.5161 20.3515C16.5391 20.4119 16.5759 20.4583 16.5988 20.4583C16.6218 20.4583 16.6678 20.528 16.6953 20.6162C16.7229 20.7045 16.7781 20.802 16.8148 20.8299C16.847 20.8624 16.8791 20.946 16.8791 21.0157C16.8791 21.0854 16.9159 21.1922 16.9619 21.2526C17.0078 21.313 17.0584 21.4013 17.0767 21.4431C17.1181 21.5545 17.2698 21.5499 17.3846 21.4338C17.4765 21.3409 17.4765 21.2898 17.4674 18.2891L17.4536 15.2373L17.3065 15.2048C17.2284 15.1908 17.1411 15.1908 17.1089 15.2094C17.0446 15.2512 16.8791 15.5624 16.8791 15.646C16.8791 15.7157 16.7459 15.9805 16.5667 16.2731C16.3507 16.6261 15.5327 17.3461 15.3443 17.3461C15.3121 17.3461 15.2294 17.3879 15.1651 17.439C15.1007 17.4901 14.9996 17.5319 14.9399 17.5319C14.8848 17.5366 14.7515 17.5737 14.6504 17.6248C14.5493 17.6759 14.4022 17.7131 14.3241 17.7177C14.246 17.7177 14.1219 17.7502 14.0438 17.7874C13.9657 17.8246 13.7405 17.871 13.5429 17.8849C13.3453 17.8989 13.0236 17.9453 12.8352 17.9871C12.5319 18.0568 12.054 18.0661 8.8097 18.0661C5.75838 18.0661 5.11503 18.0568 5.05529 18.0011C4.98176 17.9453 4.97717 17.4437 4.97717 11.5909C4.97717 6.37914 4.98636 5.22717 5.03691 5.15749C5.09664 5.07388 5.27127 5.07388 9.14056 5.0971C12.5687 5.11568 13.2166 5.12962 13.4097 5.19C13.5383 5.22717 13.8049 5.27362 14.007 5.2922C14.2092 5.30613 14.4068 5.34794 14.4436 5.38045C14.4804 5.41297 14.609 5.45477 14.7331 5.46871C14.8526 5.48729 15.0134 5.52909 15.087 5.5709C15.1605 5.60806 15.2754 5.64058 15.3397 5.64058C15.4086 5.64058 15.5143 5.68238 15.5787 5.73348C15.643 5.78457 15.7257 5.82638 15.7625 5.82638C15.7992 5.82638 15.882 5.86818 15.9463 5.91928C16.0106 5.97038 16.0979 6.01218 16.1439 6.01218C16.1898 6.01218 16.2772 6.05399 16.3415 6.10508C16.4058 6.15618 16.4794 6.19798 16.5023 6.19798C16.5713 6.19798 16.9251 6.43953 16.9251 6.48598C16.9251 6.50456 16.9481 6.52314 16.9757 6.52314C17.1043 6.52314 18.3037 7.68905 18.3037 7.80982C18.3037 7.84233 18.3313 7.88414 18.3634 7.90272C18.4416 7.94917 18.823 8.5298 18.9563 8.79922C18.9884 8.86425 19.0482 8.96644 19.0941 9.02682C19.1401 9.08721 19.1768 9.16617 19.1768 9.20333C19.1768 9.2405 19.2182 9.32411 19.2687 9.38914C19.3193 9.45417 19.3606 9.55636 19.3606 9.61674C19.3606 9.67249 19.3836 9.73752 19.4112 9.7561C19.4388 9.77003 19.4893 9.85829 19.5261 9.9419L19.5904 10.0998L19.7788 9.99764C19.9213 9.91403 19.9534 9.87222 19.9351 9.7979C19.8615 9.52849 19.8202 9.1383 19.8202 8.65986C19.8202 8.36723 19.788 7.94917 19.7467 7.73085C19.7053 7.51253 19.6593 6.96906 19.6364 6.52314C19.6088 5.84496 19.5169 5.02278 19.4296 4.59544C19.4112 4.50254 19.3744 4.50254 9.77472 4.50254C4.47627 4.50254 0.12906 4.51183 0.110679 4.52576Z" fill="#665459"/>
<path d="M39.81 12.794C39.6951 12.8125 39.3551 12.8451 39.0518 12.8636C38.7485 12.8822 38.4314 12.924 38.3487 12.9612C38.2614 12.9937 38.0546 13.0355 37.8891 13.0541C37.7191 13.068 37.5307 13.1145 37.471 13.1516C37.4112 13.1934 37.2917 13.2306 37.2044 13.2352C37.1171 13.2445 36.9976 13.2817 36.9425 13.3235C36.8828 13.3607 36.7541 13.4071 36.6576 13.4257C36.5611 13.4396 36.4462 13.4814 36.4094 13.514C36.3727 13.5465 36.2762 13.5883 36.1935 13.6022C36.1153 13.6208 36.0372 13.6672 36.0234 13.7044C36.0096 13.7416 35.9499 13.7694 35.8902 13.7694C35.8258 13.7694 35.7247 13.8112 35.6604 13.8623C35.5961 13.9134 35.5042 13.9552 35.4536 13.9552C35.4031 13.9552 35.3387 13.9877 35.3066 14.0249C35.279 14.0621 35.2101 14.1039 35.1595 14.1225C35.1044 14.1364 34.9481 14.2339 34.8057 14.3315C34.6632 14.4337 34.5207 14.5126 34.4932 14.5126C34.461 14.5126 34.4334 14.5312 34.4334 14.5591C34.4334 14.5823 34.3645 14.6334 34.2864 14.6752C34.1531 14.7356 33.6063 15.1537 33.0824 15.5949C32.5034 16.078 31.2626 17.4251 31.2626 17.5691C31.2626 17.5923 31.2994 17.6434 31.3454 17.6852C31.4373 17.7735 31.6303 17.792 31.6303 17.7177C31.6303 17.5366 33.5925 15.6739 33.7855 15.6739C33.8131 15.6739 33.859 15.6321 33.8912 15.581C33.9233 15.5299 33.9739 15.4881 34.0015 15.4881C34.029 15.4881 34.1072 15.4463 34.1715 15.3952C34.2358 15.3441 34.3186 15.3023 34.3599 15.3023C34.4013 15.3023 34.4334 15.2791 34.4334 15.2558C34.4334 15.228 34.4886 15.1815 34.5621 15.1537C34.631 15.1211 34.7367 15.0608 34.7965 15.0143C34.8562 14.9679 34.9435 14.9307 34.9849 14.9307C35.0308 14.9307 35.0906 14.9028 35.1181 14.8657C35.1503 14.8285 35.2376 14.7821 35.3203 14.7635C35.3985 14.7495 35.4904 14.7031 35.5271 14.6706C35.5593 14.6334 35.6328 14.6055 35.688 14.6055C35.7431 14.6055 35.858 14.5637 35.9407 14.5126C36.0234 14.4615 36.1475 14.4197 36.2164 14.4197C36.2854 14.4197 36.4186 14.3779 36.5151 14.3268C36.6208 14.2711 36.7725 14.2339 36.9149 14.2339C37.039 14.2339 37.232 14.1968 37.3377 14.1503C37.5077 14.0806 37.6961 14.0714 38.6841 14.0714C39.6767 14.0714 39.856 14.0853 40.0122 14.155C40.1087 14.1968 40.2833 14.2339 40.4028 14.2339C40.5223 14.2339 40.6601 14.2618 40.7107 14.299C40.7612 14.3361 40.8853 14.3826 40.9864 14.4012C41.0829 14.4197 41.2208 14.4708 41.2897 14.5173C41.354 14.5684 41.4505 14.6055 41.5011 14.6055C41.5562 14.6055 41.6114 14.6288 41.6252 14.652C41.6436 14.6799 41.7217 14.731 41.7998 14.7681C41.956 14.8424 42.0204 14.8842 42.3145 15.0793C42.5534 15.2326 43.1554 15.8458 43.3301 16.1012C43.4036 16.2127 43.4909 16.3196 43.5185 16.3381C43.5506 16.3567 43.5782 16.4032 43.5782 16.4357C43.5782 16.4682 43.6196 16.5518 43.6701 16.6168C43.7207 16.6819 43.762 16.7655 43.762 16.8027C43.762 16.8398 43.8034 16.9234 43.8539 16.9885C43.9045 17.0535 43.9458 17.1464 43.9458 17.1975C43.9458 17.2486 43.9734 17.3229 44.0102 17.3601C44.0469 17.3972 44.0929 17.5087 44.1067 17.6062C44.125 17.7038 44.1664 17.8339 44.2032 17.885C44.2353 17.9407 44.2767 18.0986 44.2951 18.2333C44.3135 18.3727 44.3548 18.5399 44.387 18.6096C44.4237 18.6793 44.4513 18.879 44.4513 19.0602C44.4513 19.2367 44.4835 19.5339 44.5202 19.7151C44.557 19.9009 44.5754 20.0681 44.5616 20.0914C44.5111 20.175 44.0791 20.3608 43.8631 20.3933C43.7436 20.4119 43.5966 20.449 43.5322 20.4815C43.4679 20.5141 43.3255 20.5512 43.2106 20.5651C43.0957 20.5791 42.9394 20.6255 42.8659 20.6627C42.7878 20.7045 42.6545 20.737 42.5672 20.737C42.4799 20.737 42.3237 20.7788 42.2226 20.8299C42.1215 20.881 41.9744 20.9182 41.8963 20.9228C41.8136 20.9228 41.6619 20.9646 41.5516 21.0157C41.4414 21.0668 41.2851 21.1086 41.2116 21.1086C41.1335 21.1086 40.991 21.1504 40.8899 21.2015C40.7888 21.2526 40.6372 21.2944 40.5453 21.2944C40.4534 21.2944 40.3385 21.3269 40.2787 21.3641C40.2236 21.4059 40.0719 21.4477 39.9387 21.4663C39.8054 21.4802 39.6538 21.5174 39.6032 21.5499C39.5527 21.5824 39.4102 21.6196 39.2815 21.6428C39.1575 21.6614 38.9966 21.7032 38.9277 21.7403C38.8588 21.7775 38.7347 21.8054 38.652 21.8054C38.5693 21.8054 38.4406 21.8472 38.3625 21.8983C38.2889 21.9494 38.1649 21.9912 38.0867 21.9912C38.0132 21.9912 37.8662 22.033 37.7651 22.0841C37.664 22.1352 37.5077 22.177 37.4204 22.177C37.3331 22.177 37.1998 22.2188 37.1217 22.2699C37.0482 22.321 36.9333 22.3628 36.869 22.3628C36.8046 22.3628 36.676 22.4046 36.5795 22.4557C36.4876 22.5068 36.3635 22.5486 36.3037 22.5486C36.2486 22.5486 36.1567 22.5765 36.1061 22.6136C36.0556 22.6508 35.9315 22.6926 35.8304 22.7112C35.7339 22.7297 35.6098 22.7716 35.5593 22.8041C35.5087 22.8366 35.3985 22.8784 35.3203 22.8923C35.2422 22.9109 35.1503 22.9574 35.1181 22.9945C35.0906 23.0317 35.0124 23.0595 34.9527 23.0595C34.8884 23.0595 34.7827 23.0967 34.7183 23.1478C34.6494 23.1943 34.5299 23.25 34.4472 23.2639C34.3691 23.2825 34.2772 23.329 34.245 23.3661C34.2175 23.4033 34.1393 23.4312 34.0796 23.4312C34.0153 23.4312 33.9142 23.473 33.8498 23.5241C33.7855 23.5751 33.6936 23.617 33.643 23.617C33.5971 23.617 33.5465 23.6495 33.5327 23.6866C33.519 23.7238 33.4362 23.7656 33.3489 23.7842C33.2616 23.7981 33.1927 23.8306 33.1927 23.8539C33.1927 23.8771 33.1238 23.9282 33.0456 23.9653C32.9629 24.0025 32.8113 24.0861 32.7102 24.1511C32.6091 24.2115 32.4804 24.2858 32.4253 24.3091C32.3655 24.3369 32.3196 24.3787 32.3196 24.4066C32.3196 24.4345 32.2828 24.467 32.2414 24.4856C32.1955 24.4995 32.0622 24.5924 31.9427 24.69C31.8233 24.7922 31.7176 24.8711 31.7038 24.8711C31.69 24.8711 31.6303 24.9176 31.5705 24.9733C31.5154 25.0337 31.4051 25.1359 31.3316 25.2009C31.0375 25.461 30.7526 25.8094 30.5044 26.2135C30.4814 26.2553 30.4355 26.3018 30.4079 26.3204C30.3757 26.339 30.339 26.4133 30.3206 26.483C30.3068 26.5573 30.2654 26.6455 30.2287 26.6827C30.1965 26.7199 30.1552 26.8035 30.1368 26.8685C30.1184 26.9335 30.077 27.0171 30.0449 27.0543C30.0127 27.0915 29.9759 27.2029 29.9621 27.3051C29.9484 27.4027 29.9024 27.5188 29.8611 27.5653C29.8197 27.6071 29.7921 27.7278 29.7921 27.8486C29.7921 27.9601 29.7737 28.1273 29.7462 28.2156C29.6543 28.5639 29.6129 29.1678 29.6543 29.5162C29.7462 30.2594 29.8289 30.7053 29.9024 30.8725C29.9438 30.9701 29.9759 31.0955 29.9759 31.1559C29.9759 31.2209 30.0081 31.2952 30.0449 31.3277C30.0816 31.3603 30.123 31.4578 30.1414 31.5461C30.1597 31.6343 30.1965 31.7179 30.2287 31.7319C30.2608 31.7412 30.3022 31.8015 30.316 31.8666C30.3665 32.0524 30.7066 32.5169 31.1202 32.9535C31.3408 33.1858 31.5338 33.3716 31.5567 33.3716C31.5751 33.3716 31.6808 33.4412 31.7819 33.5202C31.9979 33.6921 32.0209 33.7107 32.4161 33.915C32.5723 33.9987 32.7286 34.0683 32.7561 34.0683C32.7883 34.0683 32.8664 34.1101 32.9308 34.1612C32.9951 34.2123 33.0962 34.2541 33.1559 34.2541C33.2157 34.2541 33.3535 34.2959 33.4592 34.347C33.5603 34.3981 33.7303 34.4399 33.836 34.4399C33.9371 34.4399 34.1026 34.4817 34.2037 34.5328C34.3691 34.6164 34.4564 34.6257 35.4536 34.6072C36.2854 34.5932 36.5749 34.5746 36.7495 34.5143C36.8736 34.4725 37.039 34.4399 37.1171 34.4399C37.1998 34.4399 37.3055 34.4074 37.3607 34.3703C37.4158 34.3331 37.5629 34.2774 37.6869 34.2495C37.8156 34.2216 37.9443 34.1705 37.9765 34.1334C38.004 34.0962 38.0776 34.0683 38.1373 34.0683C38.1924 34.0683 38.2706 34.0358 38.3073 33.9987C38.3441 33.9661 38.4268 33.9197 38.4911 33.9058C38.5601 33.8872 38.6336 33.8454 38.6612 33.8129C38.6933 33.7757 38.7852 33.7246 38.8726 33.6967C38.9599 33.6689 39.0288 33.6224 39.0288 33.5992C39.0288 33.576 39.0564 33.5574 39.0931 33.5574C39.1299 33.5574 39.2218 33.5063 39.2953 33.4412C39.3734 33.3762 39.4562 33.3251 39.4837 33.3251C39.5113 33.3251 39.5343 33.3019 39.5343 33.2787C39.5343 33.2508 39.5756 33.2136 39.6216 33.1951C39.833 33.1161 40.968 32.057 41.3495 31.5879C41.7401 31.1094 41.9836 30.7843 42.1444 30.5381C42.2364 30.3987 42.3237 30.2733 42.342 30.2594C42.3558 30.2454 42.4064 30.1711 42.4477 30.0968C42.4891 30.0178 42.5626 29.8924 42.6132 29.8181C42.6637 29.7391 42.7281 29.6277 42.7602 29.5626C42.7924 29.4976 42.8521 29.3954 42.8981 29.335C42.944 29.2746 42.9808 29.1864 42.9808 29.1446C42.9808 29.0981 43.013 29.0517 43.0451 29.0377C43.0819 29.0238 43.1279 28.9355 43.1416 28.8473C43.16 28.759 43.2014 28.6754 43.2335 28.6615C43.2657 28.6522 43.3025 28.5686 43.3209 28.4803C43.3392 28.3921 43.3806 28.3038 43.4174 28.2899C43.4541 28.2759 43.4863 28.2156 43.4863 28.1598C43.4863 28.0994 43.5277 27.988 43.5782 27.9136C43.6287 27.8347 43.6701 27.7278 43.6701 27.6767C43.6701 27.621 43.7115 27.5234 43.762 27.4584C43.8126 27.3934 43.8539 27.2819 43.8539 27.2076C43.8539 27.1379 43.8953 27.0264 43.9458 26.9614C43.9964 26.8964 44.0377 26.7895 44.0377 26.7199C44.0377 26.6502 44.0791 26.5248 44.1296 26.4411C44.1802 26.3575 44.2216 26.2182 44.2216 26.1346C44.2216 25.9627 44.4881 25.4471 44.5478 25.5075C44.5708 25.5307 44.5938 27.3423 44.5984 29.5394L44.6122 33.5342L44.7362 33.7107C44.9063 33.9569 45.0349 34.0451 45.3566 34.1566C45.6185 34.2448 45.7472 34.2541 47.4567 34.2541C48.4585 34.2588 49.2994 34.2448 49.3224 34.2309C49.35 34.217 49.3684 34.1194 49.3684 34.0219C49.3684 33.8268 49.2305 33.6735 49.0053 33.6178C48.941 33.6038 48.8491 33.5574 48.8031 33.5156C48.6055 33.3391 48.2655 32.9767 48.2655 32.9396C48.2655 32.9164 48.2241 32.8467 48.1736 32.7817C48.123 32.7166 48.0817 32.6237 48.0817 32.5726C48.0817 32.5262 48.0495 32.4379 48.0127 32.3822C47.976 32.3218 47.9392 32.1824 47.93 32.071C47.9208 31.9548 47.8749 31.7551 47.8289 31.6297C47.7462 31.4114 47.7416 31.0862 47.7278 25.893C47.7186 22.5254 47.691 20.1703 47.6635 19.8312C47.6359 19.5247 47.5945 19.0555 47.5762 18.7861C47.5532 18.5167 47.5026 18.1962 47.4613 18.0708C47.4245 17.9453 47.3923 17.7781 47.3923 17.6991C47.3923 17.6155 47.3602 17.5087 47.3234 17.453C47.2867 17.4019 47.2453 17.2672 47.2269 17.1557C47.2085 17.0442 47.1718 16.9188 47.135 16.8816C47.1028 16.8445 47.0661 16.7469 47.0477 16.6726C47.0201 16.5379 46.8041 16.0455 46.749 15.9991C46.7122 15.9619 46.5744 15.7157 46.51 15.5671C46.4779 15.4974 46.4365 15.4417 46.4135 15.4417C46.3952 15.4417 46.363 15.3998 46.3446 15.3534C46.2941 15.214 45.7059 14.573 45.3934 14.3175C45.2417 14.1968 45.0855 14.0667 45.0487 14.0342C44.9706 13.9692 44.8419 13.8902 44.6811 13.8066C44.6168 13.7741 44.5157 13.7137 44.4559 13.6672C44.3962 13.6208 44.3089 13.5836 44.2675 13.5836C44.2216 13.5836 44.1618 13.5511 44.1296 13.514C44.0975 13.4768 44.0377 13.4443 43.9964 13.4443C43.955 13.4443 43.8631 13.4118 43.785 13.37C43.7115 13.3281 43.5368 13.2678 43.399 13.2306C43.2611 13.1934 43.1233 13.147 43.1003 13.1238C43.0727 13.1005 42.9394 13.0727 42.8016 13.0541C42.6637 13.0355 42.4799 12.9891 42.3926 12.9519C42.3053 12.9147 42.1261 12.8869 41.9974 12.8869C41.8687 12.8869 41.5149 12.8544 41.2116 12.8172C40.6326 12.7429 40.1501 12.7336 39.81 12.794ZM44.534 20.7463C44.603 20.816 44.6076 21.9447 44.5386 22.4557C44.5157 22.6461 44.4789 23.0456 44.4559 23.3382C44.4375 23.6309 44.387 23.9468 44.3502 24.035C44.3089 24.1233 44.2767 24.2951 44.2767 24.4159C44.2721 24.5367 44.2399 24.6946 44.2078 24.7643C44.171 24.8386 44.125 25.0151 44.1113 25.1591C44.0929 25.3031 44.0469 25.4471 44.0102 25.4796C43.9734 25.5075 43.9458 25.5865 43.9458 25.6561C43.9412 25.7212 43.9045 25.8605 43.8539 25.9627C43.8034 26.0649 43.762 26.1903 43.762 26.2414C43.762 26.2925 43.7207 26.3947 43.6701 26.4737C43.6196 26.548 43.5782 26.6595 43.5782 26.7106C43.5782 26.7663 43.546 26.836 43.5093 26.8685C43.4725 26.901 43.4311 26.9939 43.4128 27.0822C43.399 27.1658 43.3576 27.2587 43.3255 27.2865C43.2887 27.3144 43.2473 27.398 43.2335 27.4724C43.2198 27.5467 43.1784 27.6303 43.1416 27.6582C43.1049 27.686 43.0635 27.7743 43.0497 27.8486C43.0314 27.9229 43.0038 27.9833 42.9808 27.9833C42.9578 27.9833 42.9165 28.0576 42.8889 28.1459C42.8613 28.2341 42.8154 28.3085 42.7924 28.3085C42.7694 28.3085 42.7189 28.3781 42.6821 28.4571C42.581 28.6708 42.411 28.9448 42.2364 29.1678C42.2134 29.191 42.0985 29.349 41.9744 29.5162C41.7538 29.8181 40.7015 30.9097 40.628 30.9097C40.6096 30.9097 40.5545 30.9469 40.5085 30.9887C40.389 31.1094 39.8835 31.4532 39.7732 31.4857C39.7227 31.5043 39.6538 31.5461 39.6262 31.5832C39.594 31.6204 39.5389 31.6529 39.5021 31.6529C39.4654 31.6529 39.3826 31.6947 39.3183 31.7458C39.254 31.7969 39.1575 31.8387 39.1023 31.8387C39.0518 31.8387 38.9461 31.8805 38.868 31.9316C38.7944 31.9827 38.6704 32.0245 38.6014 32.0245C38.5325 32.0245 38.413 32.057 38.3349 32.0942C38.0224 32.2614 36.097 32.266 35.7799 32.1035C35.7109 32.0663 35.5639 32.0245 35.4536 32.0106C35.3433 31.9966 35.2192 31.9548 35.1779 31.9177C35.1365 31.8805 35.0354 31.8341 34.9527 31.8201C34.8746 31.8015 34.7965 31.7551 34.7827 31.7179C34.7689 31.6808 34.7183 31.6529 34.6724 31.6529C34.6264 31.6529 34.5483 31.6111 34.5024 31.56C34.4564 31.5089 34.3921 31.4671 34.3599 31.4671C34.3277 31.4671 34.2772 31.4253 34.2496 31.3742C34.222 31.3231 34.1715 31.2813 34.1393 31.2813C34.0704 31.2813 33.6063 30.7936 33.6063 30.7192C33.6063 30.696 33.5741 30.6635 33.5327 30.6449C33.496 30.631 33.4408 30.5752 33.4179 30.5195C33.3903 30.4684 33.3214 30.3384 33.2616 30.2362C33.064 29.911 32.9216 29.5533 32.894 29.3164C32.8802 29.2189 32.8388 29.0935 32.7975 29.0284C32.6872 28.8612 32.6826 27.0496 32.7929 26.836C32.8342 26.7524 32.871 26.6362 32.871 26.5805C32.871 26.5201 32.9124 26.3901 32.9583 26.2925C33.0089 26.195 33.064 26.0556 33.0778 25.9859C33.0916 25.9116 33.1375 25.8419 33.1743 25.828C33.2111 25.8141 33.2386 25.7723 33.2386 25.7351C33.2386 25.5214 34.075 24.5413 34.5759 24.1604C34.9068 23.9142 35.0079 23.8492 35.063 23.8492C35.0952 23.8492 35.1227 23.8306 35.1227 23.8028C35.1227 23.7795 35.1917 23.7284 35.2744 23.6866C35.4306 23.6123 35.5409 23.5473 35.7155 23.4172C35.7753 23.3754 35.8534 23.3382 35.8902 23.3382C35.9269 23.3382 36.0096 23.2964 36.074 23.2453C36.1383 23.1943 36.2302 23.1524 36.2716 23.1524C36.3175 23.1524 36.3773 23.1199 36.4094 23.0828C36.4416 23.0456 36.5335 23.0038 36.6208 22.9852C36.7035 22.9713 36.7954 22.9295 36.8276 22.8923C36.8552 22.8552 36.9241 22.8273 36.9793 22.8273C37.0344 22.8273 37.1493 22.7901 37.2366 22.739C37.3239 22.6926 37.471 22.6415 37.5629 22.6229C37.6594 22.6043 37.7559 22.5625 37.788 22.5254C37.8202 22.4882 37.9121 22.4557 37.9902 22.4557C38.0684 22.451 38.2154 22.4139 38.3165 22.3628C38.4176 22.3117 38.5463 22.2745 38.606 22.2699C38.6612 22.2699 38.7852 22.2281 38.8771 22.177C38.9736 22.1259 39.1207 22.0841 39.2034 22.0841C39.2861 22.0841 39.401 22.0562 39.4562 22.0191C39.5113 21.9819 39.663 21.9354 39.787 21.9169C39.9157 21.9029 40.0719 21.8565 40.1409 21.824C40.2098 21.7868 40.3339 21.7589 40.4166 21.7589C40.4993 21.7589 40.6601 21.7171 40.7704 21.666C40.8807 21.6149 41.0278 21.5731 41.1013 21.5731C41.1794 21.5731 41.3173 21.5313 41.4184 21.4802C41.5195 21.4291 41.6665 21.3873 41.7492 21.3873C41.832 21.3827 41.9836 21.3455 42.0847 21.2944C42.1858 21.2433 42.342 21.2015 42.4294 21.2015C42.5167 21.2015 42.6729 21.1597 42.774 21.1086C42.8751 21.0575 43.0222 21.0204 43.1003 21.0157C43.183 21.0157 43.3346 20.9739 43.4449 20.9228C43.5552 20.8717 43.7207 20.8299 43.808 20.8299C43.8953 20.8299 44.0102 20.7974 44.0561 20.7602C44.1664 20.6766 44.4559 20.6673 44.534 20.7463Z" fill="#665459"/>
<path d="M57.2034 12.8218C56.9507 12.8544 56.629 12.8822 56.4912 12.8822C56.3533 12.8869 56.0914 12.9287 55.9167 12.9798C55.7421 13.0309 55.5353 13.0727 55.4664 13.0727C55.3975 13.0727 55.2826 13.1005 55.2137 13.1377C55.1447 13.1749 55.0023 13.2167 54.9058 13.2353C54.8047 13.2538 54.676 13.2956 54.6209 13.3328C54.5657 13.37 54.4692 13.3978 54.4095 13.3978C54.3451 13.3978 54.244 13.4396 54.1797 13.4907C54.1154 13.5418 54.0418 13.5836 54.0143 13.5836C53.9453 13.5836 53.4215 13.8577 53.3893 13.9088C53.3709 13.9367 53.3204 13.9552 53.2744 13.9552C53.2285 13.9552 53.1687 13.9831 53.1503 14.0156C53.1182 14.0667 52.9573 14.1921 52.7735 14.3036C52.5667 14.429 51.712 15.2605 51.712 15.3348C51.712 15.3673 51.6844 15.4091 51.6568 15.4277C51.5741 15.4788 51.3995 15.7389 51.3444 15.8829C51.3214 15.948 51.28 15.9991 51.257 15.9991C51.2341 15.9991 51.2019 16.0594 51.1835 16.1338C51.1697 16.2081 51.1238 16.2963 51.087 16.3289C51.0503 16.3567 51.0227 16.4264 51.0227 16.4821C51.0227 16.5332 50.9813 16.6401 50.9308 16.719C50.8802 16.7934 50.8389 16.9234 50.8389 16.9977C50.8389 17.0767 50.7929 17.2254 50.7424 17.3229C50.6505 17.4994 50.6413 17.5737 50.6459 18.6932C50.6459 19.7987 50.6505 19.8916 50.7424 20.0867C50.7929 20.2028 50.8389 20.3468 50.8389 20.4119C50.8389 20.4769 50.8802 20.6116 50.9262 20.7138C50.9767 20.816 51.0365 20.9507 51.064 21.0157C51.0916 21.0808 51.1559 21.1922 51.2065 21.2712C51.257 21.3455 51.3214 21.4616 51.3536 21.5267C51.4363 21.6846 51.496 21.7543 51.9464 22.2141C52.3094 22.5811 52.847 23.0131 52.9481 23.0131C52.9711 23.0131 52.9987 23.041 53.0125 23.0781C53.0263 23.1153 53.0998 23.1571 53.1733 23.1757C53.2514 23.1896 53.325 23.2361 53.3387 23.2732C53.3525 23.3104 53.4031 23.3383 53.449 23.3383C53.4996 23.3383 53.5915 23.3801 53.6558 23.4312C53.7202 23.4822 53.8121 23.5241 53.8626 23.5241C53.9132 23.5241 53.9867 23.5566 54.0235 23.5937C54.0602 23.6262 54.1521 23.6727 54.2211 23.6913C54.2946 23.7099 54.3865 23.747 54.4233 23.7842C54.46 23.8167 54.5473 23.8585 54.6209 23.8724C54.6898 23.891 54.823 23.9468 54.915 23.9932C55.0115 24.0397 55.1309 24.0815 55.1861 24.0815C55.2412 24.0815 55.3102 24.1093 55.3377 24.1465C55.3653 24.1837 55.4802 24.2255 55.5951 24.2394C55.7054 24.258 55.8202 24.3044 55.8478 24.3369C55.88 24.3741 55.9581 24.4066 56.027 24.4066C56.0914 24.4066 56.2246 24.4484 56.3211 24.4995C56.413 24.5506 56.5371 24.5924 56.5923 24.5924C56.652 24.5971 56.7807 24.6342 56.8818 24.6853C56.9829 24.7364 57.1069 24.7782 57.1575 24.7782C57.208 24.7782 57.3321 24.82 57.4332 24.8711C57.5343 24.9222 57.6676 24.9594 57.7319 24.964C57.7962 24.964 57.8927 24.9919 57.9433 25.0291C57.9938 25.0662 58.1179 25.1127 58.219 25.1312C58.3155 25.1498 58.4396 25.1916 58.4901 25.2241C58.5407 25.252 58.6556 25.2938 58.7429 25.3124C58.8302 25.331 58.9497 25.3728 59.0048 25.4099C59.06 25.4471 59.1473 25.475 59.1932 25.475C59.2392 25.475 59.3541 25.5168 59.4552 25.5679C59.5563 25.619 59.6666 25.6608 59.7079 25.6608C59.7447 25.6608 59.8412 25.7026 59.9147 25.7537C59.9928 25.8048 60.0893 25.8466 60.1353 25.8466C60.1858 25.8466 60.2731 25.8884 60.3375 25.9395C60.4018 25.9906 60.4891 26.0324 60.5305 26.037C60.5718 26.037 60.7097 26.0974 60.8338 26.1717C60.9625 26.2461 61.1692 26.3622 61.2933 26.4272C61.615 26.5991 61.9734 26.8453 62.1021 26.98C62.1618 27.045 62.2308 27.1007 62.2492 27.1007C62.2859 27.1007 62.8052 27.6349 62.9339 27.8068C62.9798 27.8672 63.0579 27.9694 63.1085 28.039C63.159 28.1041 63.2004 28.1923 63.2004 28.2295C63.2004 28.2667 63.2417 28.3503 63.2923 28.4153C63.3428 28.4803 63.3842 28.5639 63.3842 28.6057C63.3842 28.6429 63.4256 28.7544 63.4715 28.8519C63.545 29.0006 63.6278 29.6416 63.6278 30.0271C63.6232 30.4313 63.545 31.0072 63.4715 31.1559C63.4256 31.2534 63.3842 31.3788 63.3842 31.4392C63.3842 31.4996 63.3474 31.5972 63.3015 31.6575C63.2555 31.7179 63.1958 31.8201 63.1636 31.8852C63.0258 32.1732 62.8833 32.3636 62.5019 32.7538C62.3227 32.9396 62.1435 33.0929 62.1113 33.0929C62.0791 33.0929 62.0378 33.1254 62.024 33.1625C62.0056 33.1997 61.9688 33.2322 61.9367 33.2322C61.9091 33.2322 61.8448 33.274 61.7988 33.3251C61.7529 33.3762 61.6747 33.418 61.6288 33.418C61.5782 33.418 61.4863 33.4598 61.422 33.5109C61.3577 33.562 61.2703 33.6038 61.2244 33.6038C61.1784 33.6038 61.0911 33.6456 61.0268 33.6967C60.9579 33.7525 60.843 33.7896 60.7327 33.7896C60.6362 33.7896 60.5075 33.8221 60.4478 33.8686C60.3375 33.9429 59.4 34.0451 58.9267 34.0265C58.1731 34.0079 57.4654 33.9336 57.3413 33.864C57.2678 33.8221 57.1115 33.7896 57.0012 33.7896C56.8818 33.7896 56.7623 33.7618 56.7163 33.7153C56.6704 33.6735 56.5463 33.6317 56.436 33.6178C56.3257 33.6038 56.2063 33.5667 56.1695 33.5342C56.1327 33.5016 56.027 33.4598 55.9397 33.4413C55.8524 33.4227 55.7467 33.3809 55.71 33.3484C55.6732 33.3158 55.5767 33.274 55.494 33.2601C55.4158 33.2415 55.3377 33.1951 55.3239 33.1579C55.3102 33.1207 55.2596 33.0929 55.2137 33.0929C55.1631 33.0929 55.0758 33.0557 55.0161 33.0093C54.8414 32.8838 54.7311 32.8188 54.5749 32.7445C54.4922 32.7027 54.4233 32.6562 54.4233 32.633C54.4233 32.6098 54.3635 32.568 54.2854 32.5355C54.2119 32.503 54.1475 32.4611 54.1475 32.4379C54.1475 32.4193 54.1108 32.3915 54.0694 32.3775C54.0235 32.3636 53.9086 32.2753 53.8121 32.1871C53.7156 32.0988 53.6237 32.0245 53.6099 32.0245C53.5318 32.0245 52.7368 31.1977 52.3553 30.7192C52.268 30.6124 52.1072 30.4173 52.0015 30.2965C51.8912 30.1711 51.8039 30.0411 51.8039 29.9993C51.8039 29.9621 51.7763 29.9203 51.7396 29.9064C51.7028 29.8924 51.6477 29.8181 51.6201 29.7438C51.5879 29.6695 51.5466 29.6091 51.5236 29.6091C51.5006 29.6091 51.473 29.558 51.4546 29.493C51.4409 29.4279 51.4087 29.3768 51.3903 29.3768C51.3673 29.3768 51.3214 29.3211 51.2892 29.2468C51.1927 29.0563 51.1008 28.903 51.0135 28.7776C50.9675 28.7172 50.9308 28.6383 50.9308 28.6011C50.9308 28.5639 50.8894 28.4803 50.8389 28.4153C50.7883 28.3503 50.747 28.2667 50.747 28.2295C50.747 28.1923 50.7056 28.1087 50.6551 28.0437C50.6045 27.9787 50.5631 27.8951 50.5631 27.8579C50.5631 27.8207 50.5356 27.7603 50.508 27.7278C50.4758 27.6907 50.4207 27.6303 50.3885 27.5885C50.2828 27.4631 50.1771 27.5234 50.1358 27.7371C50.1128 27.8718 50.1266 28.1552 50.1909 28.6383C50.2461 29.0331 50.2874 29.6044 50.2874 29.9296C50.2874 30.2501 50.3196 30.7146 50.3564 30.9561C50.3931 31.1977 50.4391 31.6483 50.4529 31.9548C50.485 32.6888 50.4896 32.7166 50.6734 32.7909C50.7562 32.8281 50.8481 32.8885 50.8848 32.9257C50.917 32.9675 50.9767 33 51.0227 33C51.064 33 51.1559 33.0418 51.2203 33.0929C51.2846 33.144 51.3765 33.1858 51.4271 33.1858C51.4776 33.1858 51.542 33.2136 51.5695 33.2508C51.6017 33.288 51.6936 33.3344 51.7717 33.3484C51.8544 33.3669 51.9509 33.4087 51.9877 33.4413C52.0245 33.4738 52.1302 33.5156 52.2175 33.5342C52.3048 33.5527 52.4105 33.5945 52.4472 33.6271C52.484 33.6596 52.6127 33.7014 52.7322 33.7153C52.847 33.7339 52.9711 33.7803 52.9987 33.8129C53.0309 33.85 53.1228 33.8825 53.2009 33.8825C53.279 33.8825 53.4077 33.915 53.4812 33.9569C53.5593 33.9987 53.7431 34.0498 53.8994 34.073C54.051 34.0916 54.2394 34.1427 54.313 34.1845C54.3865 34.2216 54.5427 34.2541 54.6622 34.2541C54.7771 34.2541 55.0069 34.2959 55.1677 34.347C55.3377 34.4028 55.5905 34.4399 55.7789 34.4399C55.9581 34.4399 56.2476 34.4771 56.4222 34.5189C56.8864 34.6257 58.8394 34.649 59.2116 34.5514C59.3587 34.5143 59.6666 34.4678 59.9009 34.4446C60.1353 34.4214 60.3926 34.3703 60.4662 34.3285C60.5443 34.2867 60.6775 34.2541 60.7648 34.2541C60.8522 34.2541 60.9854 34.2216 61.059 34.1845C61.1371 34.1427 61.2887 34.0916 61.399 34.0637C61.5093 34.0405 61.6334 33.9894 61.6701 33.9522C61.7069 33.915 61.7942 33.8825 61.8677 33.8825C61.9367 33.8825 62.0056 33.85 62.0194 33.8175C62.0332 33.7803 62.1205 33.7339 62.2078 33.72C62.2951 33.7014 62.3778 33.6596 62.3916 33.6271C62.4008 33.5945 62.4743 33.5527 62.5524 33.5342C62.6306 33.5156 62.7087 33.4784 62.7271 33.4505C62.75 33.418 62.8144 33.3669 62.8787 33.3344C63.3015 33.1254 64.2665 32.2521 64.5193 31.848C64.5652 31.7783 64.625 31.704 64.6571 31.6854C64.6893 31.6668 64.7169 31.6204 64.7169 31.5879C64.7169 31.5554 64.7582 31.481 64.8088 31.4207C64.8593 31.3603 64.9007 31.2952 64.9007 31.272C64.9007 31.2441 64.942 31.1745 64.9926 31.1094C65.0431 31.0444 65.0845 30.9515 65.0845 30.9097C65.0845 30.8632 65.1121 30.8029 65.1442 30.775C65.181 30.7471 65.2315 30.6356 65.2637 30.5288C65.2959 30.4173 65.3418 30.3058 65.3602 30.2826C65.3786 30.2547 65.4199 30.1247 65.4521 29.99C65.4797 29.8599 65.5256 29.7345 65.5486 29.7206C65.5716 29.7066 65.59 29.6184 65.59 29.5255C65.59 29.4326 65.6313 29.1585 65.6819 28.917C65.7784 28.4618 65.7968 27.8579 65.7278 27.4491C65.7049 27.3191 65.6635 27.0682 65.6359 26.8917C65.6038 26.7106 65.5532 26.5015 65.5165 26.4272C65.4797 26.3482 65.4429 26.2182 65.4291 26.1299C65.4199 26.0463 65.3786 25.9395 65.3418 25.8977C65.3005 25.8512 65.2683 25.7862 65.2683 25.7444C65.2683 25.7072 65.2269 25.619 65.1764 25.5539C65.1258 25.4889 65.0845 25.4053 65.0845 25.3635C65.0845 25.3263 65.0431 25.2706 64.9926 25.2427C64.942 25.2149 64.9007 25.173 64.9007 25.1498C64.9007 25.0987 64.5744 24.6853 64.386 24.4949C64.2298 24.3369 63.6094 23.8306 63.5221 23.7842C63.4853 23.7656 63.3704 23.7006 63.2693 23.6402C63.1682 23.5751 63.012 23.4915 62.9247 23.4497C62.8374 23.4079 62.7455 23.3475 62.7271 23.3104C62.7087 23.2732 62.6535 23.2453 62.6076 23.2453C62.5616 23.2453 62.4697 23.2035 62.4054 23.1524C62.3411 23.1014 62.2492 23.0595 62.1986 23.0595C62.1481 23.0595 62.0745 23.027 62.0332 22.9899C61.9964 22.9527 61.9367 22.9202 61.9045 22.9202C61.8723 22.9202 61.7712 22.883 61.6839 22.8319C61.5966 22.7855 61.4587 22.7344 61.376 22.7158C61.2979 22.6972 61.206 22.6508 61.1738 22.6136C61.1463 22.5765 61.0544 22.5486 60.9762 22.5486C60.8981 22.5486 60.7648 22.5068 60.6821 22.4557C60.5994 22.4046 60.4753 22.3628 60.4064 22.3628C60.3375 22.3628 60.2134 22.321 60.1307 22.2699C60.048 22.2188 59.9239 22.177 59.855 22.177C59.786 22.177 59.6712 22.1352 59.593 22.0841C59.5195 22.033 59.4 21.9912 59.3265 21.9912C59.2576 21.9912 59.1243 21.9494 59.0324 21.8983C58.9359 21.8472 58.8164 21.8054 58.7659 21.8054C58.7153 21.8054 58.6326 21.7775 58.5821 21.7404C58.5315 21.7078 58.4028 21.6614 58.2971 21.6474C58.196 21.6289 58.072 21.5824 58.0214 21.5499C57.9755 21.5127 57.8973 21.4802 57.8468 21.4802C57.7917 21.4802 57.6722 21.4384 57.5711 21.3873C57.47 21.3362 57.3505 21.2944 57.3045 21.2944C57.254 21.2944 57.1483 21.2573 57.0702 21.2062C56.9921 21.1597 56.8542 21.1086 56.7623 21.09C56.6658 21.0715 56.5693 21.0297 56.5371 20.9925C56.5049 20.9553 56.4176 20.9228 56.3441 20.9228C56.2706 20.9228 56.2017 20.8949 56.1879 20.8531C56.1741 20.816 56.0914 20.7742 56.0041 20.7556C55.9213 20.7417 55.8294 20.6999 55.7973 20.6627C55.7697 20.6255 55.7237 20.5977 55.7008 20.5977C55.6318 20.5977 55.1401 20.3561 55.0758 20.2864C55.0436 20.2539 54.9655 20.2121 54.9012 20.1982C54.8414 20.1843 54.7909 20.1517 54.7909 20.1285C54.7909 20.1053 54.7357 20.0635 54.6714 20.0403C54.5152 19.9799 53.835 19.4364 53.5915 19.1809C53.3525 18.9254 53.0446 18.4842 53.0446 18.3913C53.0446 18.3495 53.0125 18.3077 52.9757 18.2937C52.9389 18.2798 52.8976 18.1915 52.8792 18.0986C52.8654 18.0011 52.8149 17.8757 52.7735 17.8106C52.6586 17.6341 52.6632 16.0734 52.7827 15.9062C52.8241 15.8458 52.8608 15.7436 52.8608 15.6878C52.8608 15.5949 52.9527 15.4091 53.1963 15.0004C53.3066 14.8192 53.4444 14.6613 53.7523 14.3826C54.0556 14.0992 54.1567 14.0296 54.46 13.8856C54.5381 13.8484 54.6071 13.7927 54.6071 13.7694C54.6071 13.7462 54.6852 13.7137 54.7817 13.6951C54.8736 13.6765 54.9931 13.6347 55.0436 13.6022C55.0942 13.5743 55.2045 13.5325 55.2872 13.514C55.3699 13.4954 55.494 13.4536 55.5629 13.4164C55.6318 13.3792 55.7927 13.3514 55.9167 13.3514C56.0454 13.3467 56.2292 13.3142 56.3303 13.2771C56.4452 13.2353 56.7761 13.1981 57.2034 13.1842C57.8008 13.1563 57.9571 13.1656 58.3615 13.2538C58.6188 13.3049 58.867 13.3514 58.9129 13.3514C58.9589 13.3514 59.0462 13.3792 59.1105 13.4118C59.1794 13.4489 59.3219 13.4907 59.4368 13.5047C59.5563 13.5186 59.7079 13.5651 59.7814 13.5976C60.2134 13.8112 60.3375 13.8623 60.4018 13.8623C60.4432 13.8623 60.5259 13.8995 60.5856 13.9459C60.6454 13.9924 60.7465 14.0528 60.8108 14.0853C60.8751 14.1178 60.99 14.1828 61.0635 14.2339C61.1417 14.285 61.2703 14.3594 61.3531 14.3965C61.4312 14.4337 61.5001 14.4894 61.5001 14.5126C61.5001 14.5405 61.5231 14.5591 61.5507 14.5591C61.592 14.5591 61.8585 14.7728 62.194 15.07C62.6214 15.4509 63.3245 16.2127 63.421 16.3985C63.4531 16.4589 63.4991 16.51 63.5221 16.51C63.5496 16.51 63.568 16.5286 63.568 16.5518C63.568 16.5797 63.6369 16.6958 63.7197 16.8166C63.7978 16.9327 63.8897 17.0628 63.9127 17.1046C63.9402 17.1464 63.9954 17.2346 64.0413 17.295C64.0827 17.3554 64.1195 17.4437 64.1195 17.4855C64.1195 17.5319 64.1516 17.5784 64.1884 17.597C64.2252 17.6109 64.2573 17.662 64.2573 17.7084C64.2573 17.7595 64.2941 17.8478 64.34 17.9082C64.386 17.9686 64.4365 18.0568 64.4549 18.0986C64.4871 18.1915 64.5652 18.2008 64.7398 18.1358C64.8271 18.1033 64.8547 18.0661 64.8363 18.0104C64.7858 17.8757 64.7215 16.3707 64.7169 15.1908L64.7123 14.0481L64.5928 13.9088C64.5101 13.8112 64.4365 13.7694 64.3354 13.7694C64.2573 13.7694 64.1608 13.7369 64.1149 13.6951C64.0689 13.6533 63.9448 13.6115 63.8345 13.5976C63.7243 13.579 63.5956 13.5418 63.545 13.5093C63.4945 13.4768 63.352 13.435 63.2234 13.4164C63.0993 13.4025 62.9385 13.356 62.8695 13.3235C62.8006 13.2863 62.6857 13.2585 62.6168 13.2585C62.5433 13.2585 62.3732 13.226 62.2354 13.1842C62.0975 13.147 61.8126 13.0959 61.6104 13.0727C61.4036 13.0494 61.1095 12.9984 60.9579 12.9612C60.8062 12.9194 60.5397 12.8869 60.3696 12.8869C60.195 12.8869 59.7447 12.8544 59.3633 12.8172C58.5361 12.7336 57.8284 12.7382 57.2034 12.8218Z" fill="#665459"/>
<path d="M29.4153 36.3909L29.3096 36.4187L29.2958 48.2032L29.2866 59.9831L30.6928 59.997C31.4648 60.0063 32.1266 59.9924 32.1633 59.9738C32.2185 59.9413 32.2277 59.2492 32.2277 55.1801C32.2277 50.9206 32.2369 50.4189 32.3012 50.3539C32.3609 50.2889 32.5999 50.2796 34.1853 50.2796C35.9361 50.2796 36.0005 50.2842 36.0878 50.3725C36.1383 50.4236 36.1797 50.4979 36.1797 50.5351C36.1797 50.5769 36.2118 50.6187 36.2486 50.6326C36.2854 50.6512 36.3175 50.6883 36.3175 50.7209C36.3175 50.7534 36.3589 50.8323 36.4094 50.8974C36.46 50.9624 36.5013 51.046 36.5013 51.0832C36.5013 51.1157 36.5427 51.1854 36.5933 51.2318C36.6438 51.2783 36.6852 51.3572 36.6852 51.4037C36.6852 51.4501 36.7173 51.5012 36.7541 51.5152C36.7909 51.5291 36.8414 51.6127 36.869 51.701C36.8965 51.7892 36.9379 51.8589 36.9609 51.8589C36.9793 51.8589 37.0206 51.9146 37.0482 51.9843C37.0804 52.0586 37.1539 52.198 37.2136 52.3002C37.278 52.4024 37.3607 52.5557 37.3974 52.6346C37.4342 52.7182 37.4893 52.7879 37.5123 52.7879C37.5399 52.7879 37.5583 52.8204 37.5583 52.8622C37.5583 52.904 37.595 52.9923 37.641 53.0573C37.7926 53.2942 37.834 53.3685 37.9075 53.5079C37.9443 53.5822 38.0362 53.7401 38.1097 53.8563C38.1832 53.9724 38.266 54.1118 38.2889 54.1675C38.3165 54.2232 38.3946 54.3579 38.4636 54.4694C38.5325 54.5809 38.6152 54.7203 38.6474 54.7853C38.6795 54.8503 38.7577 54.985 38.8174 55.0872C38.8817 55.1894 38.9599 55.338 38.9966 55.417C39.0334 55.496 39.0885 55.5796 39.1161 55.5935C39.1437 55.6121 39.1667 55.6678 39.1667 55.7189C39.1667 55.7654 39.1896 55.8072 39.2172 55.8072C39.2402 55.8072 39.2953 55.8769 39.3321 55.9558C39.3734 56.0395 39.4516 56.1927 39.5159 56.2949C39.5756 56.3971 39.6492 56.5365 39.6767 56.6062C39.7043 56.6712 39.7503 56.7409 39.787 56.7548C39.8192 56.7641 39.8606 56.8384 39.8789 56.9174C39.8973 56.9963 39.9295 57.0614 39.9525 57.0614C39.9754 57.0614 40.0214 57.131 40.0582 57.2193C40.0949 57.3029 40.1455 57.3912 40.173 57.4051C40.2006 57.4237 40.2236 57.4748 40.2236 57.5212C40.2236 57.5677 40.2649 57.642 40.3155 57.6884C40.366 57.7349 40.4074 57.8092 40.4074 57.8557C40.4074 57.9021 40.435 57.9579 40.4671 57.9764C40.4993 57.995 40.5545 58.0833 40.5866 58.1622C40.6234 58.2459 40.6647 58.3155 40.6877 58.3155C40.7107 58.3155 40.7291 58.3434 40.7291 58.3806C40.7291 58.4131 40.7704 58.4967 40.821 58.5617C40.8715 58.6268 40.9129 58.7104 40.9129 58.7475C40.9129 58.7847 40.9451 58.8404 40.9864 58.8729C41.0232 58.9101 41.0829 59.003 41.1197 59.0913C41.1564 59.1749 41.207 59.2445 41.23 59.2445C41.2575 59.2445 41.2805 59.2817 41.2805 59.3328C41.2805 59.3793 41.3219 59.4722 41.3724 59.5372C41.423 59.6022 41.4643 59.6719 41.4643 59.6951C41.4689 59.7137 41.5149 59.7927 41.57 59.8623L41.6757 59.9924H43.353C44.2721 59.9924 45.0533 59.9878 45.0855 59.9878C45.159 59.9878 45.1176 59.8159 45.012 59.6951C44.9292 59.6022 44.8511 59.4675 44.75 59.2585C44.7133 59.1795 44.6581 59.0959 44.6351 59.082C44.6076 59.0634 44.5662 59.003 44.5432 58.9519C44.5157 58.8962 44.4467 58.7661 44.3824 58.6639C44.3226 58.5617 44.2399 58.4131 44.1986 58.3388C44.1618 58.2598 44.0883 58.1344 44.0377 58.0601C43.9872 57.9811 43.9137 57.851 43.8769 57.7674C43.8401 57.6884 43.7896 57.6188 43.7666 57.6188C43.7436 57.6188 43.6977 57.5445 43.6701 57.4562C43.6425 57.3679 43.6012 57.2936 43.5782 57.2936C43.5598 57.2936 43.5185 57.2379 43.4909 57.1636C43.4174 56.987 43.2887 56.7641 43.2427 56.7455C43.2244 56.7362 43.1784 56.6619 43.1416 56.5829C43.1049 56.4993 43.0222 56.3507 42.9578 56.2485C42.8981 56.1463 42.8292 56.0162 42.8016 55.9605C42.7786 55.9094 42.7327 55.849 42.7051 55.8304C42.6821 55.8165 42.627 55.7329 42.5902 55.6539C42.5534 55.5703 42.4799 55.4402 42.4294 55.3659C42.3145 55.1848 42.1766 54.9386 42.0847 54.7481C42.0479 54.6692 41.9974 54.5995 41.979 54.5995C41.9606 54.5995 41.9193 54.5437 41.8871 54.4694C41.7952 54.265 41.6849 54.0699 41.616 54.0049C41.5838 53.9724 41.5425 53.8934 41.5287 53.8284C41.5149 53.768 41.4827 53.7169 41.4597 53.7169C41.4368 53.7169 41.3908 53.6472 41.354 53.559C41.3173 53.4754 41.2667 53.3871 41.2392 53.3732C41.2116 53.3546 41.1886 53.2989 41.1886 53.2478C41.1886 53.2013 41.1702 53.1595 41.1427 53.1595C41.1197 53.1595 41.0645 53.0898 41.0278 53.0062C40.991 52.9273 40.8669 52.7089 40.7521 52.5324C40.6418 52.3513 40.5177 52.1422 40.4763 52.0679C40.4396 51.989 40.366 51.8635 40.3155 51.7892C40.2649 51.7103 40.1914 51.5802 40.1547 51.4966C40.1179 51.4176 40.0673 51.3479 40.0444 51.3479C40.0214 51.3479 39.9892 51.2968 39.9754 51.2365C39.9617 51.1714 39.9203 51.0925 39.8881 51.06C39.856 51.0274 39.8054 50.9485 39.7732 50.8834C39.617 50.5769 39.5619 50.484 39.5021 50.4422C39.4654 50.4143 39.424 50.3028 39.4102 50.196C39.3872 50.0287 39.3964 50.0009 39.4699 49.9962C39.663 49.9916 39.8192 49.9591 39.8743 49.9126C39.9065 49.8848 40.0444 49.8383 40.1822 49.8104C40.3155 49.7826 40.4717 49.7315 40.5223 49.6989C40.5728 49.6664 40.6785 49.6246 40.7612 49.606C40.8394 49.5921 40.9313 49.5457 40.9634 49.5085C40.991 49.4713 41.0737 49.4435 41.1427 49.4435C41.2116 49.4435 41.2943 49.411 41.3265 49.3784C41.354 49.3413 41.4505 49.2855 41.5379 49.2577C41.6252 49.2298 41.6941 49.188 41.6941 49.1648C41.6941 49.1415 41.7401 49.109 41.7952 49.0904C42.0617 49.0068 42.8935 48.3101 43.2611 47.8734C43.3714 47.7387 43.5047 47.5808 43.5552 47.5251C43.6563 47.4182 43.6885 47.3671 43.8447 47.0791C43.8999 46.9769 43.9688 46.8887 43.9918 46.8887C44.0194 46.8887 44.0377 46.8515 44.0377 46.8004C44.0377 46.754 44.0791 46.6611 44.1296 46.596C44.1802 46.531 44.2216 46.4474 44.2216 46.4102C44.2216 46.3731 44.2629 46.2895 44.3135 46.2244C44.364 46.1594 44.4054 46.0433 44.4054 45.969C44.4054 45.89 44.4283 45.8203 44.4559 45.811C44.4789 45.8017 44.5202 45.6996 44.5478 45.5881C44.5708 45.4719 44.6213 45.314 44.6535 45.2397C44.6903 45.1607 44.727 44.9656 44.7454 44.7984C44.7592 44.6312 44.8052 44.3804 44.8419 44.241C44.9476 43.8415 44.9338 42.6477 44.8189 42.174C44.7684 41.9696 44.727 41.728 44.727 41.6351C44.727 41.5422 44.6949 41.4029 44.6581 41.3332C44.6213 41.2589 44.5754 41.1242 44.5616 41.0359C44.5478 40.9477 44.4927 40.7897 44.4467 40.6829C44.4008 40.5807 44.3594 40.4646 44.3594 40.4228C44.3594 40.381 44.3318 40.3252 44.2951 40.2973C44.2583 40.2648 44.2124 40.1766 44.1986 40.1023C44.1802 40.0233 44.1388 39.949 44.1021 39.935C44.0653 39.9211 44.0377 39.8746 44.0377 39.8282C44.0377 39.7864 43.9964 39.7121 43.9458 39.6656C43.8953 39.6192 43.8539 39.5448 43.8539 39.4984C43.8539 39.4519 43.8264 39.3962 43.7942 39.3776C43.7574 39.359 43.7115 39.3033 43.6885 39.2615C43.592 39.0803 42.9578 38.4207 42.6224 38.156C42.4294 38.0027 42.2364 37.8494 42.1996 37.8169C42.1628 37.789 42.0801 37.7333 42.0158 37.7054C41.8871 37.6404 41.7676 37.5661 41.6068 37.4453C41.5471 37.4035 41.4597 37.3663 41.4184 37.3663C41.3724 37.3663 41.3265 37.3384 41.3127 37.3013C41.2989 37.2688 41.1978 37.2177 41.0829 37.1898C40.9726 37.1573 40.8532 37.1062 40.821 37.0644C40.7888 37.0272 40.7015 36.9947 40.628 36.9947C40.5545 36.9947 40.4396 36.9529 40.3798 36.9065C40.3201 36.86 40.2006 36.8182 40.1133 36.8182C40.0306 36.8182 39.9019 36.7857 39.8284 36.7485C39.7549 36.7114 39.571 36.6696 39.4194 36.651C39.2678 36.6324 39.061 36.5906 38.9599 36.5581C38.6244 36.4373 36.9563 36.3862 33.2065 36.3769C31.1799 36.3723 29.475 36.3769 29.4153 36.3909ZM37.0758 38.8109C37.3791 38.8342 37.8386 38.8713 38.0959 38.8945C38.3533 38.9131 38.5922 38.9549 38.629 38.9828C38.6658 39.0153 38.8036 39.0525 38.9323 39.0711C39.061 39.085 39.1896 39.1268 39.2172 39.1593C39.2448 39.1965 39.2999 39.2243 39.3367 39.2243C39.4424 39.2243 39.9019 39.4566 40.196 39.661C40.5361 39.8979 41.0967 40.4599 41.0967 40.5621C41.0967 40.5853 41.1381 40.6411 41.1886 40.6875C41.2392 40.734 41.2805 40.8083 41.2805 40.8501C41.2805 40.8919 41.3219 40.9662 41.3724 41.0127C41.423 41.0591 41.4643 41.1335 41.4643 41.1799C41.4643 41.2264 41.5057 41.3332 41.5562 41.4168C41.6068 41.5004 41.6481 41.6305 41.6481 41.7002C41.6481 41.7698 41.6849 41.8953 41.7263 41.9789C41.7952 42.1089 41.809 42.2761 41.809 43.2888C41.809 44.306 41.7998 44.4686 41.7263 44.5894C41.6849 44.6637 41.6481 44.7891 41.6481 44.8681C41.6481 44.9424 41.6068 45.0678 41.5562 45.1468C41.5057 45.2211 41.4643 45.3187 41.4643 45.3605C41.4643 45.4023 41.423 45.4905 41.3724 45.5556C41.3219 45.6206 41.2805 45.6949 41.2805 45.7228C41.2805 45.7692 41.1335 46.0015 41.0186 46.1455C40.5315 46.74 40.0995 47.107 39.5802 47.3578C39.2402 47.5251 39.0839 47.5854 39.0012 47.5854C38.9507 47.5854 38.8863 47.6087 38.8588 47.6365C38.8312 47.6644 38.675 47.7062 38.5141 47.7248C38.3533 47.748 38.1005 47.7945 37.9489 47.8363C37.7145 47.8967 37.2734 47.9106 34.9987 47.9106C32.3977 47.9106 32.3196 47.906 32.2736 47.8223C32.2414 47.762 32.2277 46.2802 32.2277 43.3445C32.2277 39.229 32.2323 38.9549 32.3104 38.8899C32.3517 38.8481 32.4207 38.8063 32.4574 38.7924C32.5815 38.7459 36.5105 38.7598 37.0758 38.8109Z" fill="#665459"/>
<path d="M47.8703 36.4001C47.8473 36.4373 47.8427 59.9506 47.8703 59.9738C47.8795 59.9831 48.5228 59.9924 49.304 59.9924H50.724L50.747 54.6366C50.7607 51.6917 50.7745 49.2762 50.7837 49.267C50.7883 49.2623 53.4904 49.2577 56.7899 49.2577C62.7087 49.2577 62.7822 49.2577 62.8328 49.3506C62.8649 49.411 62.8787 51.0925 62.8787 54.697C62.8741 57.5863 62.8833 59.9599 62.8925 59.9738C62.9063 59.9831 63.5496 59.9924 64.3309 59.9924H65.7508L65.7646 48.2729C65.7692 41.8256 65.7646 36.5116 65.7554 36.4605C65.7324 36.3676 65.6957 36.3676 64.3217 36.3769C63.5496 36.3816 62.9063 36.3955 62.8971 36.4048C62.8833 36.4141 62.8695 38.7273 62.8649 41.5376C62.8557 46.0851 62.8465 46.6611 62.7868 46.7261C62.7225 46.7911 62.0745 46.7958 56.8128 46.7958C51.3719 46.7958 50.9078 46.7911 50.8297 46.7215C50.7516 46.6471 50.747 46.4381 50.747 41.5515C50.747 38.7505 50.7286 36.4373 50.7102 36.4141C50.6734 36.363 47.9024 36.349 47.8703 36.4001Z" fill="#665459"/>
<path d="M10.533 43.8508C10.5054 43.8833 10.4916 45.1143 10.4916 46.9119C10.4962 49.0626 10.4824 49.9358 10.4457 49.973C10.4089 50.0102 10.3537 49.973 10.2481 49.8383C10.055 49.5828 9.31979 48.8396 9.26005 48.8396C9.23707 48.8396 9.18652 48.8071 9.15436 48.7606C9.11759 48.7188 9.02109 48.6585 8.94297 48.6213C8.86025 48.5888 8.79132 48.5377 8.79132 48.5145C8.79132 48.4866 8.75456 48.468 8.70401 48.468C8.65806 48.468 8.56615 48.4262 8.50182 48.3751C8.43748 48.324 8.35476 48.2822 8.318 48.2822C8.28124 48.2822 8.19852 48.2404 8.13419 48.1893C8.06985 48.1382 7.95956 48.0964 7.88604 48.0964C7.81711 48.0964 7.67925 48.0546 7.58274 48.0035C7.49084 47.9524 7.33919 47.9106 7.24728 47.9106C7.15538 47.9106 6.95318 47.8781 6.79694 47.8363C6.42012 47.7387 5.63891 47.7341 5.27128 47.8363C5.11503 47.8781 4.89905 47.9106 4.79796 47.9106C4.69226 47.9106 4.52683 47.9524 4.42573 48.0035C4.32463 48.0546 4.19596 48.0964 4.14082 48.0964C4.08108 48.0964 3.97539 48.1382 3.89726 48.1893C3.82374 48.2404 3.72264 48.2822 3.68128 48.2822C3.63992 48.2822 3.57559 48.3101 3.54342 48.3379C3.51125 48.3705 3.37799 48.4494 3.25391 48.5145C3.01955 48.6352 2.44053 49.0765 2.19239 49.3273C2.04993 49.4667 1.55823 50.0891 1.44794 50.2564C1.41577 50.3074 1.36063 50.4189 1.32386 50.4979C1.2825 50.5815 1.23655 50.6512 1.21357 50.6512C1.1906 50.6512 1.15843 50.7209 1.14464 50.8091C1.12626 50.8974 1.0849 50.9903 1.04814 51.0228C1.01138 51.0553 0.97921 51.125 0.97921 51.1807C0.97921 51.2318 0.937852 51.3479 0.887303 51.4316C0.836754 51.5152 0.795396 51.6499 0.795396 51.7335C0.7908 51.8124 0.754038 51.9657 0.703489 52.0679C0.65294 52.1748 0.611581 52.3606 0.611581 52.5092C0.606986 52.6486 0.579414 52.9505 0.542651 53.1827C0.478316 53.6287 0.487507 54.1768 0.565628 54.6552C0.588605 54.8178 0.611581 55.0501 0.611581 55.1708C0.611581 55.2916 0.643749 55.4542 0.680512 55.5285C0.72187 55.6028 0.763228 55.7654 0.78161 55.8862C0.795396 56.0116 0.836754 56.1416 0.868922 56.1834C0.905684 56.2206 0.947043 56.3274 0.960829 56.4157C0.97921 56.504 1.02976 56.648 1.08031 56.7362C1.12626 56.8245 1.16302 56.9127 1.16302 56.9313C1.16302 56.9545 1.23655 57.0753 1.32386 57.2007C1.41117 57.3261 1.4847 57.4562 1.4847 57.4887C1.4847 57.5166 1.51687 57.5723 1.55363 57.6141C1.59039 57.6559 1.72366 57.8139 1.84314 57.9671C2.10507 58.2923 2.61516 58.7986 2.82655 58.938C2.90467 58.9937 3.02415 59.0727 3.08848 59.1191C3.15282 59.1609 3.27689 59.2306 3.35961 59.2678C3.43773 59.3049 3.50666 59.356 3.50666 59.3792C3.50666 59.4025 3.57559 59.435 3.6629 59.4489C3.75021 59.4675 3.84212 59.5093 3.87429 59.5465C3.90646 59.5836 3.97539 59.6161 4.03053 59.6161C4.08567 59.6161 4.20515 59.6533 4.29706 59.7044C4.38897 59.7509 4.57278 59.8019 4.71064 59.8205C4.84391 59.8345 5.03691 59.8809 5.13801 59.9181C5.40454 60.0156 6.70962 60.0156 6.93939 59.9181C7.0313 59.8809 7.21971 59.8345 7.36217 59.8159C7.50462 59.8019 7.69303 59.7509 7.78034 59.6998C7.86766 59.6533 7.99633 59.6161 8.06066 59.6161C8.12959 59.6161 8.20771 59.5883 8.23528 59.5511C8.26745 59.514 8.35476 59.4675 8.42829 59.4536C8.50641 59.435 8.57994 59.3932 8.59372 59.356C8.60751 59.3189 8.63968 59.291 8.66265 59.291C8.73158 59.291 9.15895 59.003 9.15895 58.9565C9.15895 58.938 9.18652 58.9194 9.22329 58.9194C9.29222 58.9194 10.078 58.1437 10.078 58.0786C10.078 58.0043 10.3308 57.6699 10.3859 57.6652C10.4135 57.6652 10.4548 57.6884 10.4732 57.7163C10.4916 57.7488 10.5008 58.2133 10.4962 58.7568C10.487 59.435 10.5008 59.7555 10.5376 59.7787C10.5651 59.7973 10.9833 59.8112 11.4704 59.8112L12.3527 59.8159V51.8124V43.8137L11.4658 43.809C10.8546 43.8044 10.5605 43.8183 10.533 43.8508ZM7.58274 49.541C7.68844 49.5875 7.8263 49.6293 7.88604 49.6293C7.95037 49.6293 8.0239 49.6571 8.05147 49.6943C8.08364 49.7315 8.15716 49.7733 8.2215 49.7872C8.35476 49.8244 8.7132 50.0659 9.04866 50.3539C9.27384 50.5443 9.8023 51.1621 9.8023 51.2318C9.8023 51.2504 9.84366 51.3154 9.89421 51.3805C9.94476 51.4455 9.98612 51.5291 9.98612 51.5663C9.98612 51.6034 10.0275 51.687 10.078 51.7521C10.1286 51.8171 10.1699 51.91 10.1699 51.9564C10.1699 52.0075 10.2113 52.1237 10.2618 52.2166C10.3124 52.3141 10.3537 52.4674 10.3537 52.5603C10.3537 52.6532 10.3859 52.8065 10.4227 52.8947C10.5054 53.0991 10.5238 54.5623 10.4411 54.7713C10.4135 54.841 10.3721 55.0268 10.3492 55.1801C10.3216 55.3288 10.2848 55.4774 10.2618 55.5053C10.2435 55.5285 10.2021 55.6446 10.1699 55.7561C10.1424 55.8676 10.0872 55.9884 10.0505 56.0255C10.0137 56.0627 9.98612 56.1277 9.98612 56.1742C9.98612 56.2206 9.94476 56.2949 9.89421 56.3414C9.84366 56.3878 9.8023 56.4436 9.8023 56.4622C9.8023 56.6665 8.73618 57.7581 8.53858 57.7581C8.50641 57.7581 8.46965 57.786 8.45586 57.8232C8.44208 57.8603 8.36855 57.9021 8.29043 57.9207C8.2169 57.9346 8.12959 57.9811 8.09742 58.0182C8.06985 58.0554 7.99173 58.0833 7.9228 58.0833C7.85847 58.0833 7.74358 58.1204 7.66546 58.1669C7.523 58.2551 6.94399 58.3341 6.42471 58.3341C5.96518 58.3341 5.32642 58.2598 5.2529 58.1994C5.21613 58.1669 5.11044 58.1297 5.01853 58.1111C4.92203 58.0926 4.82553 58.0508 4.79336 58.0136C4.76119 57.9764 4.70145 57.9439 4.6555 57.9439C4.61414 57.9439 4.52683 57.9068 4.46709 57.8603C4.40735 57.8185 4.32463 57.7581 4.28327 57.7349C4.01674 57.5677 3.90646 57.4701 3.58018 57.1357C3.38258 56.9313 3.20336 56.7223 3.18039 56.6665C3.15741 56.6154 3.0655 56.4575 2.97819 56.3182C2.89088 56.1788 2.82195 56.0348 2.81735 55.9976C2.81735 55.9605 2.78519 55.8955 2.74383 55.849C2.70707 55.8072 2.66571 55.6957 2.66111 55.6028C2.65192 55.5146 2.61516 55.3938 2.5784 55.3334C2.53704 55.2684 2.4773 54.9386 2.43134 54.5019C2.36701 53.9027 2.36241 53.7169 2.40377 53.4336C2.43594 53.2431 2.46811 52.9551 2.48189 52.7879C2.49568 52.6207 2.53704 52.4442 2.56921 52.3931C2.60597 52.342 2.63354 52.2537 2.63354 52.1887C2.63354 52.0912 2.75761 51.766 2.8679 51.5802C2.89088 51.543 2.94143 51.4455 2.97819 51.3665C3.01036 51.2876 3.07469 51.1993 3.11146 51.1621C3.15282 51.1296 3.18498 51.0785 3.18498 51.046C3.18498 50.8695 4.39356 49.8151 4.59116 49.8151C4.63252 49.8151 4.71524 49.7733 4.77957 49.7222C4.84391 49.6711 4.94041 49.6293 4.99556 49.6293C5.0461 49.6293 5.15639 49.5921 5.22992 49.5503C5.5424 49.3784 7.21052 49.3691 7.58274 49.541Z" fill="#665459"/>
<path d="M19.2228 47.7712C19.0574 47.7945 18.8506 47.8363 18.7633 47.8595C18.6759 47.8874 18.4967 47.9106 18.3681 47.9106C18.2348 47.9106 18.1015 47.9385 18.0464 47.9803C18.0004 48.0174 17.858 48.0592 17.7385 48.0778C17.6144 48.0964 17.4903 48.1336 17.4582 48.1661C17.4306 48.1986 17.3525 48.2358 17.2927 48.2543C17.1273 48.3008 16.6816 48.5237 16.6126 48.5934C16.5805 48.6259 16.5207 48.6538 16.484 48.6538C16.4472 48.6538 16.4058 48.6863 16.392 48.7235C16.3737 48.7606 16.3369 48.7932 16.3093 48.7932C16.2542 48.7932 15.8957 49.0626 15.6016 49.3273C15.4454 49.4667 14.8342 50.2145 14.7331 50.3911C14.701 50.4468 14.6504 50.5397 14.6182 50.6047C14.5861 50.6698 14.5263 50.772 14.4804 50.8323C14.4344 50.8927 14.3977 50.9903 14.3977 51.0553C14.3977 51.1157 14.3655 51.1761 14.3287 51.19C14.292 51.2039 14.2506 51.2922 14.2322 51.3851C14.2184 51.4826 14.1771 51.5988 14.1449 51.6499C14.1173 51.701 14.076 51.845 14.0576 51.975C14.0346 52.1004 13.9887 52.2816 13.9473 52.3699C13.8416 52.6114 13.8186 54.9943 13.9243 55.2684C13.9611 55.3752 14.0117 55.5842 14.0392 55.7329C14.0622 55.8862 14.1127 56.0534 14.1449 56.1045C14.1771 56.1602 14.2184 56.2717 14.2368 56.36C14.2552 56.4482 14.3012 56.5504 14.3333 56.5876C14.3701 56.6201 14.3977 56.6944 14.3977 56.7455C14.3977 56.7966 14.439 56.8895 14.4896 56.9545C14.5401 57.0196 14.5815 57.0985 14.5815 57.131C14.5815 57.1589 14.6228 57.2239 14.6734 57.2704C14.7239 57.3168 14.7653 57.3772 14.7653 57.4097C14.7653 57.4423 14.8066 57.5026 14.8572 57.5491C14.9077 57.5955 14.9491 57.6606 14.9491 57.6884C14.9491 57.7674 15.8636 58.7336 15.9371 58.7336C15.9693 58.7336 16.006 58.7615 16.0198 58.7986C16.0428 58.859 16.1255 58.9147 16.4196 59.068C16.484 59.1005 16.5483 59.1516 16.5713 59.1842C16.5896 59.212 16.6678 59.2492 16.7459 59.2678C16.824 59.2863 16.8975 59.3282 16.9067 59.3607C16.9205 59.3932 16.9986 59.435 17.0859 59.4489C17.1687 59.4675 17.2606 59.5093 17.2881 59.5418C17.3157 59.5743 17.4398 59.6161 17.5639 59.6347C17.6879 59.6487 17.812 59.6951 17.8442 59.7323C17.8763 59.7694 17.9774 59.8019 18.0694 59.8019C18.1659 59.8019 18.3956 59.8438 18.584 59.8948C19.0711 60.0249 20.2016 60.0249 20.6933 59.8948C20.8817 59.8438 21.1115 59.8019 21.1988 59.8019C21.2907 59.8019 21.4056 59.7741 21.4561 59.7369C21.5067 59.6998 21.6308 59.6533 21.7319 59.6347C21.8284 59.6161 21.9846 59.565 22.0719 59.5186C22.1592 59.4675 22.2649 59.4303 22.3063 59.4303C22.3476 59.4303 22.3936 59.4025 22.4074 59.3653C22.4212 59.3282 22.4947 59.2863 22.5728 59.2678C22.6509 59.2492 22.7291 59.212 22.7474 59.1842C22.7704 59.1516 22.8347 59.1005 22.8991 59.068C23.1105 58.9565 23.2024 58.8962 23.5057 58.6546C23.8319 58.3898 24.4155 57.7674 24.4155 57.6838C24.4155 57.6513 24.4477 57.6188 24.4845 57.6002C24.5212 57.5863 24.5534 57.5537 24.5534 57.5212C24.5534 57.4934 24.604 57.4097 24.6683 57.3308C24.7326 57.2565 24.7832 57.1682 24.7832 57.131C24.7832 57.0985 24.8153 57.0614 24.8521 57.0428C24.8889 57.0288 24.921 56.9778 24.921 56.9313C24.921 56.8802 24.9624 56.7873 25.0129 56.7223C25.0635 56.6572 25.1049 56.569 25.1049 56.5179C25.1049 56.4714 25.1462 56.3692 25.1968 56.2949C25.2473 56.216 25.2887 56.0952 25.2887 56.0255C25.2887 55.9558 25.3254 55.8397 25.3668 55.7747C25.4127 55.705 25.4633 55.5146 25.4771 55.3473C25.4955 55.1801 25.546 54.8828 25.5874 54.6924C25.6839 54.2511 25.6609 53.127 25.546 52.7693C25.5046 52.6439 25.4725 52.4488 25.4725 52.342C25.4725 52.2305 25.4311 52.0493 25.3852 51.9425C25.3346 51.831 25.2795 51.6684 25.2657 51.5755C25.2519 51.478 25.2105 51.3805 25.1738 51.3479C25.137 51.3154 25.1049 51.2272 25.1049 51.1528C25.1049 51.0785 25.0773 51.0089 25.0405 50.9949C25.0038 50.981 24.9624 50.9159 24.9486 50.8556C24.9302 50.7905 24.8475 50.6372 24.7602 50.5118C24.6729 50.3818 24.5994 50.2656 24.5994 50.2424C24.5994 50.1077 23.2989 48.7932 23.1656 48.7932C23.1426 48.7932 23.0278 48.7188 22.8991 48.6306C22.775 48.5423 22.6234 48.4587 22.559 48.4401C22.4947 48.4262 22.4212 48.3844 22.389 48.3472C22.3614 48.3101 22.2879 48.2822 22.2282 48.2822C22.173 48.2822 22.0903 48.2497 22.0489 48.2079C22.0122 48.1661 21.8881 48.1196 21.7824 48.1057C21.6767 48.0918 21.5297 48.0407 21.4515 47.9942C21.3688 47.9431 21.2264 47.9106 21.0885 47.9106C20.969 47.9106 20.7485 47.8827 20.606 47.8456C20.2659 47.7573 19.595 47.7248 19.2228 47.7712ZM20.845 49.541C20.9415 49.5875 21.0747 49.6293 21.1482 49.6293C21.2218 49.6293 21.3045 49.6571 21.3321 49.6943C21.3642 49.7315 21.4378 49.7733 21.5021 49.7872C21.6308 49.8197 21.98 50.0566 22.3201 50.3446C22.5728 50.5536 23.0829 51.1807 23.0829 51.2783C23.0829 51.3108 23.1105 51.3479 23.1472 51.3619C23.184 51.3758 23.2254 51.4501 23.2437 51.5291C23.2575 51.6034 23.3035 51.6917 23.3402 51.7242C23.377 51.7521 23.4046 51.831 23.4046 51.9007C23.4046 51.9657 23.4459 52.0911 23.4965 52.1748C23.547 52.2584 23.5884 52.407 23.5884 52.5092C23.5884 52.6114 23.6251 52.7926 23.6665 52.9133C23.7814 53.2385 23.786 54.488 23.6711 54.776C23.6251 54.8828 23.5884 55.0686 23.5884 55.1894C23.5884 55.3195 23.5608 55.4356 23.5149 55.4867C23.4735 55.5331 23.4321 55.6539 23.4184 55.7607C23.4046 55.8676 23.3632 55.9651 23.331 55.9791C23.2943 55.993 23.2667 56.0394 23.2667 56.0859C23.2667 56.1277 23.2254 56.2206 23.1748 56.2856C23.1243 56.3507 23.0829 56.4157 23.0829 56.4296C23.0829 56.4854 22.8393 56.8105 22.6004 57.0753C22.3155 57.3912 21.8651 57.7581 21.764 57.7581C21.7319 57.7581 21.6905 57.7906 21.6767 57.8278C21.6629 57.865 21.5802 57.9068 21.4929 57.9253C21.4056 57.9393 21.3367 57.9718 21.3367 57.995C21.3367 58.0136 21.2493 58.0554 21.1437 58.0879C21.0334 58.1158 20.8909 58.1669 20.822 58.204C20.7576 58.2412 20.6244 58.2691 20.5233 58.2691C20.4268 58.2691 20.2154 58.2923 20.05 58.3202C19.7007 58.3806 18.6897 58.3016 18.4646 58.1994C18.391 58.1622 18.2624 58.1204 18.1796 58.1065C18.1015 58.0926 18.0096 58.0461 17.9774 58.009C17.9499 57.9718 17.8901 57.9439 17.8442 57.9439C17.8028 57.9439 17.7109 57.9021 17.6466 57.851C17.5822 57.7999 17.5179 57.7581 17.4995 57.7581C17.4628 57.7581 17.0584 57.4237 16.9067 57.2657C16.654 57.0149 16.3691 56.6201 16.2588 56.3785C16.222 56.2996 16.1715 56.2206 16.1439 56.202C16.1209 56.1881 16.0979 56.137 16.0979 56.0952C16.0979 56.0487 16.0566 55.9373 16.006 55.8397C15.9555 55.7468 15.9141 55.6167 15.9141 55.5517C15.9141 55.482 15.8774 55.3659 15.836 55.2823C15.7625 55.1522 15.7533 54.985 15.7533 53.8795C15.7533 52.774 15.7625 52.6068 15.836 52.4767C15.8774 52.3931 15.9141 52.2677 15.9141 52.198C15.9141 52.1237 15.9555 51.989 16.006 51.8914C16.0566 51.7985 16.0979 51.6917 16.0979 51.6545C16.0979 51.622 16.1255 51.5663 16.1623 51.5384C16.199 51.5059 16.245 51.4176 16.2588 51.3433C16.2772 51.269 16.3047 51.2086 16.3231 51.2086C16.3415 51.2086 16.4196 51.111 16.4977 50.9856C16.7735 50.5629 17.619 49.8151 17.8258 49.8151C17.8672 49.8151 17.9499 49.7733 18.0142 49.7222C18.0785 49.6711 18.175 49.6293 18.2302 49.6293C18.2807 49.6293 18.391 49.5921 18.4646 49.5503C18.653 49.4481 19.2136 49.4017 20.004 49.4249C20.5463 49.4435 20.7025 49.4667 20.845 49.541Z" fill="#665459"/>
</svg>
