<svg width="42" height="42" viewBox="0 0 42 42" fill="none" xmlns="http://www.w3.org/2000/svg">
<path d="M12.0876 41.9895C12.9711 41.8592 13.3616 41.7723 13.6733 41.6341C13.7403 41.6025 13.8153 41.5788 13.8389 41.5788C13.8626 41.5788 13.977 41.5354 14.0953 41.4801C14.2137 41.4249 14.3281 41.3814 14.3478 41.3814C14.4148 41.3814 15.0815 41.0616 15.1564 40.9984C15.1919 40.9629 15.259 40.9155 15.2984 40.8918C15.4365 40.8128 15.9532 40.5088 16.0321 40.4614C16.2333 40.339 16.9314 39.7546 17.2194 39.4703C17.673 39.0123 18.2331 38.3331 18.3949 38.0449C18.4304 37.9817 18.4816 37.8909 18.5093 37.8514C18.813 37.3697 19.1364 36.726 19.1838 36.4931C19.1995 36.426 19.2745 36.2246 19.3494 36.0429C19.5191 35.6362 19.6256 35.2019 19.6808 34.6688C19.8386 33.1565 19.8386 32.813 19.6808 31.4113C19.6295 30.9453 19.4875 30.203 19.4441 30.1477C19.4244 30.124 19.3889 30.0174 19.3613 29.9108C19.3376 29.8002 19.2942 29.6699 19.2666 29.6147C19.239 29.5594 19.2035 29.4528 19.1917 29.3777C19.1483 29.1606 18.8564 28.3788 18.7341 28.1458C18.671 28.0313 18.5645 27.822 18.4974 27.6799C18.4304 27.5377 18.3594 27.3956 18.3396 27.364C18.3199 27.3324 18.2726 27.2416 18.241 27.1665C18.2055 27.0915 18.1661 27.0204 18.1503 27.0086C18.1306 26.9968 18.0793 26.9217 18.028 26.8428C17.9255 26.673 17.8702 26.6611 17.7085 26.7717C17.6415 26.8151 17.5389 26.8862 17.4718 26.9296C17.4087 26.9731 17.3417 27.0086 17.318 27.0086C17.2983 27.0086 17.2746 27.0244 17.2667 27.0402C17.2588 27.056 17.0853 27.1744 16.8802 27.3047C16.675 27.4311 16.4975 27.5496 16.4857 27.5614C16.4542 27.5969 16.1346 27.7983 16.111 27.7983C16.0991 27.7983 15.9966 27.8654 15.8822 27.9484C15.6495 28.1103 15.5864 28.1537 15.3655 28.28C15.1761 28.3946 15.1288 28.4222 14.9118 28.5683C14.8172 28.6354 14.7107 28.7065 14.6791 28.7262C14.6436 28.7499 14.5963 28.7776 14.5766 28.7973C14.4779 28.8684 14.2413 29.0066 14.1032 29.0777C14.0243 29.1211 13.9139 29.1961 13.8587 29.2474C13.8034 29.2988 13.7482 29.3383 13.7364 29.3383C13.7245 29.3383 13.6535 29.3817 13.5825 29.437C13.5115 29.4923 13.4405 29.5357 13.4248 29.5357C13.409 29.5357 13.3656 29.5594 13.334 29.591C13.2985 29.6186 13.192 29.6857 13.0934 29.7371C12.9948 29.7884 12.8134 29.9069 12.6911 30.0016C12.5688 30.0924 12.4544 30.1675 12.4426 30.1675C12.4307 30.1675 12.3716 30.1991 12.3124 30.2425C12.2532 30.282 12.0797 30.3925 11.9298 30.4873C11.7759 30.5781 11.5905 30.7045 11.5156 30.7637C11.2987 30.9295 11.0068 31.0835 10.9594 31.0519C10.8924 31.0125 10.9318 30.9256 11.2119 30.4912C11.3578 30.2701 11.4762 30.0806 11.4762 30.0727C11.4762 30.053 11.9692 29.3027 12.0284 29.2317C12.0481 29.204 12.0678 29.1764 12.0678 29.1645C12.0678 29.1527 12.1191 29.0658 12.1822 28.975C12.4189 28.6236 12.699 28.1853 12.699 28.1695C12.699 28.1576 12.766 28.0589 12.8449 27.9444C12.9869 27.747 13.05 27.6522 13.1486 27.4627C13.2394 27.2968 13.3971 27.0718 13.5668 26.8625C13.5865 26.8349 13.6338 26.7519 13.6733 26.6769C13.7088 26.5979 13.7522 26.5348 13.7719 26.5348C13.7877 26.5348 13.8034 26.519 13.8034 26.4953C13.8034 26.4755 13.8705 26.3531 13.9494 26.2307C14.0322 26.1044 14.115 25.9741 14.1387 25.9385C14.2531 25.753 14.5332 25.3265 14.8487 24.8448C15.3024 24.1577 15.33 24.0946 15.2353 24.0037C15.1959 23.9642 14.9513 23.8221 14.691 23.6878C13.5036 23.0758 13.6259 23.1311 13.1131 22.9653C12.9396 22.906 12.7621 22.8389 12.7187 22.8152C12.6792 22.7915 12.553 22.7481 12.4426 22.7204C12.3361 22.6928 12.0442 22.6138 11.7957 22.5467C11.3381 22.4243 10.8608 22.3335 10.3322 22.2703C9.93385 22.219 7.98919 22.219 7.57107 22.2703C6.95967 22.3414 6.10765 22.5309 5.84731 22.6494C5.78025 22.681 5.70925 22.7047 5.68953 22.7047C5.67375 22.7047 5.59486 22.7362 5.51992 22.7797C5.44497 22.8192 5.33847 22.8626 5.28324 22.8784C5.09391 22.9337 4.21033 23.3878 4.19061 23.4391C4.17877 23.4707 4.15116 23.4944 4.13144 23.4944C4.11172 23.4944 4.03677 23.5339 3.96972 23.5852C3.8356 23.68 3.72121 23.751 3.62654 23.7984C3.59498 23.8142 3.46482 23.909 3.34254 24.0116C3.21631 24.1143 3.09008 24.2209 3.05458 24.2525C2.9323 24.3512 2.26568 25.0146 2.12762 25.1725C1.91067 25.4213 1.52411 25.9425 1.39788 26.1597C1.33477 26.2663 1.26771 26.3729 1.24799 26.3966C1.18882 26.4637 0.912703 26.9691 0.731255 27.3442C0.46697 27.8852 0.372303 28.1655 0.151409 29.0184C-0.0537071 29.7963 -0.0497627 30.9019 0.159298 31.5811C0.419638 32.4182 0.557695 32.6946 1.00343 33.2671C1.28349 33.6225 1.69766 34.0331 1.96984 34.2148C2.06845 34.2779 2.15523 34.3411 2.16706 34.353C2.25384 34.4398 2.50629 34.5938 2.7193 34.6846C2.8613 34.7439 3.01119 34.807 3.05458 34.8268C3.21236 34.8979 3.61471 35.0321 3.95788 35.1269C4.376 35.2414 5.18857 35.2927 5.61853 35.2295C5.95381 35.1822 6.46266 35.044 6.51788 34.9887C6.54155 34.965 6.58888 34.9452 6.62438 34.9452C6.65989 34.9452 6.75455 34.9097 6.84133 34.8663C7.11745 34.7241 7.23973 34.7952 7.14112 35.04C6.76639 35.9482 6.65989 36.7971 6.80189 37.7092C6.85711 38.0528 6.97545 38.5187 7.05828 38.7161C7.28312 39.2413 7.61052 39.8612 7.70913 39.9402C7.73674 39.9639 7.86297 40.1179 7.99708 40.2837C8.12725 40.4496 8.30475 40.6351 8.38759 40.6944C8.47042 40.7575 8.60454 40.8681 8.68343 40.9471C8.89643 41.1485 8.90432 41.1524 9.20805 41.3182C9.76029 41.6183 9.91018 41.6934 10.0325 41.721C10.0995 41.7328 10.1745 41.7644 10.2021 41.7842C10.3322 41.8908 11.7247 42.0408 12.0876 41.9895Z" fill="#FCE3EC"/>
<path d="M31.0421 41.7565C31.4879 41.6657 31.8863 41.5472 32.0283 41.4683C32.0717 41.4446 32.257 41.3538 32.4385 41.263C32.6199 41.1761 32.8606 41.0221 32.9749 40.9273C33.0893 40.8286 33.1958 40.7496 33.2156 40.7496C33.2668 40.7496 33.9887 39.9955 34.1031 39.8178C34.6277 39.0241 34.7224 38.8148 34.9275 38.0014C35.0774 37.4091 35.1208 36.6155 35.034 36.0903C34.963 35.6955 34.8289 35.1742 34.75 34.9966C34.6829 34.8544 34.675 34.6846 34.7303 34.6491C34.75 34.6372 34.8249 34.6491 34.8959 34.6807C35.0734 34.7596 35.4718 34.8821 35.8939 34.9887C36.1819 35.0637 36.3515 35.0795 36.8011 35.0795C37.3652 35.0795 37.7439 35.0163 38.3316 34.8228C38.4539 34.7794 38.5762 34.7478 38.5999 34.7478C38.6787 34.7478 39.3769 34.4161 39.4243 34.3569C39.4361 34.3411 39.5426 34.27 39.6609 34.195C39.7793 34.12 39.8976 34.041 39.9252 34.0173C39.9489 33.9976 40.0475 33.9146 40.1382 33.8396C40.4104 33.6146 40.5051 33.5198 40.7536 33.2079C41.1125 32.7498 41.2387 32.5642 41.3176 32.3787C41.3374 32.3234 41.3847 32.2326 41.4162 32.1733C41.4478 32.118 41.4754 32.0509 41.4754 32.0272C41.4754 32.0035 41.5109 31.9088 41.5504 31.814C41.6293 31.6403 41.7318 31.277 41.7989 30.9374C41.8501 30.6689 41.8501 29.5159 41.7989 29.2988C41.645 28.663 41.5819 28.434 41.4399 27.9957C41.2821 27.4982 41.1914 27.2771 41.0218 26.9888C40.8601 26.7164 40.8167 26.6414 40.655 26.3373C40.4419 25.9425 39.9173 25.2238 39.582 24.8645C39.2507 24.5131 39.1836 24.446 38.8799 24.1735C38.5565 23.8813 38.304 23.6918 38.2409 23.6918C38.2212 23.6918 38.1896 23.6681 38.1738 23.6444C38.1305 23.5773 37.7833 23.3364 37.7321 23.3364C37.7084 23.3364 37.6887 23.3206 37.6887 23.3009C37.6887 23.2614 36.8248 22.827 36.4067 22.6533C36.0241 22.4954 35.3417 22.2782 35.1366 22.2506C35.034 22.2348 34.8092 22.1992 34.6435 22.1716C34.0479 22.061 32.9749 22.0176 32.1545 22.0689C31.7403 22.0926 31.2749 22.14 31.121 22.1716C30.9711 22.2032 30.8015 22.2308 30.7502 22.2308C30.5806 22.2308 29.4051 22.5349 29.1488 22.6454C29.0817 22.6731 28.9634 22.7165 28.8805 22.7441C28.7937 22.7718 28.6794 22.8152 28.6241 22.8468C28.565 22.8784 28.49 22.9021 28.4545 22.9021C28.423 22.9021 28.3796 22.9179 28.3559 22.9337C28.3362 22.9534 28.2297 23.0008 28.1232 23.0403C27.922 23.1153 27.5591 23.2969 27.137 23.5378C27.0069 23.6128 26.8175 23.7155 26.711 23.7708C26.6085 23.826 26.5256 23.8932 26.5256 23.9208C26.5256 23.9484 26.573 24.0432 26.6321 24.134C26.6953 24.2209 26.7584 24.3236 26.782 24.3591C26.8018 24.3946 26.8885 24.521 26.9674 24.6434C27.0503 24.7658 27.1173 24.8843 27.1173 24.9119C27.1173 24.9356 27.1331 24.9553 27.1568 24.9553C27.1765 24.9553 27.2357 25.0304 27.283 25.1172C27.3855 25.3028 27.3737 25.2831 27.6814 25.7529C27.8037 25.9425 27.9062 26.1162 27.9062 26.136C27.9062 26.1596 27.9299 26.1912 27.9575 26.207C28.0048 26.2386 28.2218 26.5545 28.2218 26.59C28.2218 26.6019 28.352 26.7993 28.5058 27.0323C28.8845 27.589 28.92 27.6404 28.987 27.7786C29.062 27.9247 29.1093 27.9957 29.3065 28.2721C29.484 28.5169 29.484 28.513 29.7128 28.9197C29.8075 29.0855 29.9258 29.2711 29.9732 29.3304C30.056 29.4291 30.1231 29.5278 30.2808 29.7686C30.3203 29.8239 30.3755 29.9305 30.4071 29.9977C30.4386 30.0687 30.486 30.1477 30.5057 30.1753C30.7226 30.432 30.9041 30.7281 30.9041 30.815C30.9041 30.9611 30.8055 30.9453 30.5648 30.7637C30.3479 30.6018 29.9298 30.3254 29.8982 30.3254C29.8706 30.3254 29.5827 30.1359 29.346 29.9661C29.1685 29.8358 29.0146 29.741 28.6754 29.5515C28.6084 29.5159 28.4308 29.3896 28.277 29.279C28.1232 29.1645 27.9615 29.0579 27.9141 29.0461C27.8668 29.0303 27.8037 28.9947 27.7761 28.971C27.7129 28.9118 27.6143 28.8486 27.421 28.746C27.3422 28.7025 27.2751 28.6473 27.2751 28.6275C27.2751 28.6038 27.2554 28.588 27.2317 28.588C27.208 28.588 27.1331 28.5446 27.066 28.4933C26.995 28.4419 26.853 28.3551 26.7505 28.2958C26.4744 28.1458 26.3521 28.0629 26.3166 28.0076C26.3008 27.9799 26.2692 27.9563 26.2456 27.9563C26.2259 27.9563 26.0523 27.8536 25.863 27.7312C25.6736 27.6048 25.4882 27.4864 25.4527 27.4627C25.4172 27.4429 25.2082 27.3087 24.9873 27.1665C24.7703 27.0244 24.5494 26.8822 24.4982 26.8506C24.4469 26.8191 24.3206 26.7322 24.2181 26.6611C24.0248 26.5269 23.8946 26.5111 23.8394 26.6137C23.725 26.823 23.5357 27.1547 23.4568 27.2771C23.4095 27.36 23.3345 27.4943 23.2951 27.5851C23.2517 27.6759 23.1728 27.8457 23.1176 27.9641C23.0623 28.0826 23.015 28.1971 23.015 28.2169C23.015 28.2366 22.9835 28.3156 22.9401 28.3906C22.9006 28.4656 22.8533 28.5722 22.8375 28.6275C22.8217 28.6828 22.7862 28.7815 22.7586 28.8447C22.5929 29.2356 22.2892 30.4004 22.2064 30.9769C22.1748 31.1941 22.1314 31.4665 22.1078 31.585C22.0604 31.8456 22.0604 33.8633 22.1078 34.1358C22.1275 34.2463 22.1709 34.5188 22.2064 34.7478C22.2379 34.9768 22.301 35.2769 22.3405 35.4191C22.5022 35.964 22.5496 36.114 22.5969 36.2285C22.6245 36.2956 22.6718 36.4102 22.6994 36.4852C22.7586 36.6352 23.1412 37.3933 23.2872 37.65C23.3385 37.7369 23.4371 37.883 23.512 37.9738C23.587 38.0646 23.6461 38.1554 23.6461 38.1791C23.6461 38.2028 23.6619 38.2225 23.6856 38.2225C23.7053 38.2225 23.7526 38.2857 23.7881 38.3607C23.9183 38.6411 24.9873 39.7151 25.4291 40.0152C25.508 40.0665 25.6697 40.185 25.7841 40.2758C25.8985 40.3666 26.0286 40.4574 26.072 40.4772C26.1154 40.4969 26.2219 40.5562 26.3087 40.6075C26.3955 40.6628 26.5375 40.7417 26.6243 40.7852C26.711 40.8286 26.853 40.9115 26.9398 40.9668C27.283 41.18 27.78 41.3696 28.703 41.6341C29.5235 41.871 30.3045 41.9145 31.0421 41.7565Z" fill="#FCE3EC"/>
<path d="M10.0416 19.8973C10.3335 19.8775 10.6885 19.842 10.8305 19.8183C10.9725 19.7985 11.2565 19.7551 11.4616 19.7235C11.9744 19.6485 12.574 19.4787 12.9487 19.305C13.0434 19.2655 13.138 19.2299 13.1657 19.2299C13.1933 19.226 13.2879 19.1944 13.3747 19.151C13.4615 19.1075 13.5562 19.076 13.5838 19.072C13.6153 19.072 13.6942 19.0483 13.7613 19.0167C14.2031 18.8232 14.4397 18.7087 14.4595 18.685C14.4713 18.6693 14.6133 18.5863 14.775 18.5034C15.1971 18.2902 15.3352 18.2073 15.4219 18.1243C15.4929 18.0533 15.4929 18.0493 15.414 17.919C15.3707 17.8479 15.276 17.694 15.2089 17.5755C15.1419 17.461 14.9999 17.2478 14.8973 17.1017C14.7908 16.9595 14.6764 16.7779 14.637 16.7029C14.5975 16.6278 14.5541 16.5568 14.5423 16.5449C14.5305 16.5331 14.491 16.4738 14.4595 16.4067C14.4279 16.3435 14.3135 16.1738 14.211 16.0356C14.1045 15.8974 14.0019 15.7434 13.9822 15.6999C13.9427 15.6012 13.8836 15.5064 13.7613 15.3327C13.71 15.2656 13.6706 15.1906 13.6706 15.1708C13.6706 15.1471 13.6587 15.1234 13.639 15.1155C13.6074 15.1037 13.355 14.7365 13.355 14.7049C13.355 14.693 13.3353 14.6654 13.3156 14.6378C13.2367 14.5469 13.0789 14.2903 13.0789 14.2587C13.0789 14.2311 12.9408 14.0376 12.8067 13.8757C12.787 13.852 12.712 13.7335 12.645 13.619C12.5779 13.5006 12.4714 13.3268 12.4044 13.2281C12.3413 13.1294 12.2781 13.0228 12.2624 12.9912C12.2505 12.9596 12.2269 12.9241 12.215 12.9122C12.1716 12.8767 11.9192 12.4858 11.8009 12.2765C11.7614 12.2015 11.7141 12.1344 11.7022 12.1225C11.6628 12.0909 11.4616 11.7829 11.4616 11.7553C11.4616 11.7434 11.4025 11.6487 11.3315 11.55C11.154 11.2933 11.1066 11.2064 11.1066 11.1275C11.1066 11.0209 11.2013 11.0406 11.3985 11.1946C11.4971 11.2696 11.6628 11.3762 11.7654 11.4315C11.8719 11.4907 12.0336 11.5934 12.1322 11.6684C12.2308 11.7434 12.3255 11.8027 12.3413 11.8027C12.361 11.8066 12.432 11.8461 12.499 11.8974C12.5661 11.9448 12.6529 12.0041 12.6884 12.0238C12.7239 12.0475 12.8304 12.1146 12.925 12.1778C13.0197 12.241 13.1775 12.3397 13.2761 12.4029C13.3747 12.466 13.4733 12.5332 13.5009 12.5569C13.5286 12.5766 13.5601 12.5963 13.5759 12.5963C13.6193 12.5963 13.9861 12.8451 13.9861 12.8767C13.9861 12.8885 14.0177 12.9122 14.0532 12.928C14.0926 12.9399 14.2031 13.003 14.3017 13.0662C14.4003 13.1333 14.5344 13.2123 14.6054 13.2479C14.6764 13.2834 14.7514 13.3387 14.779 13.3703C14.8026 13.4019 14.846 13.4255 14.8736 13.4255C14.9052 13.4255 14.9328 13.4374 14.9407 13.4571C14.9525 13.4848 15.2365 13.6783 15.4062 13.777C15.7612 13.9744 15.8677 14.0455 16.1753 14.2863C16.1951 14.3021 16.2424 14.3298 16.274 14.3456C16.3055 14.3614 16.412 14.4285 16.5106 14.4917C16.6092 14.5548 16.7394 14.6338 16.8065 14.6693C16.8696 14.7049 16.9958 14.7839 17.0826 14.847C17.1694 14.9102 17.3193 15.0129 17.4179 15.0721C17.5165 15.1313 17.5993 15.1945 17.6072 15.2103C17.6151 15.2261 17.6427 15.2419 17.6703 15.2419C17.6979 15.2419 17.7887 15.2853 17.8675 15.3406C18.0687 15.4749 18.1397 15.467 18.2304 15.2932C18.2699 15.2103 18.3172 15.1353 18.3291 15.1234C18.3409 15.1116 18.4198 14.9694 18.4987 14.8075C18.5815 14.6457 18.6643 14.5035 18.6801 14.4917C18.7077 14.4719 18.7472 14.3929 18.9917 13.852C19.0351 13.7493 19.0746 13.6467 19.0746 13.623C19.0746 13.6032 19.0903 13.5519 19.114 13.5124C19.1337 13.4769 19.2087 13.2755 19.2757 13.0702C19.3428 12.8648 19.4217 12.6595 19.4493 12.6161C19.473 12.5727 19.54 12.3436 19.5992 12.1028C19.9463 10.6181 20.041 9.22426 19.8871 7.81856C19.7964 6.99331 19.5992 6.08119 19.4572 5.82058C19.3704 5.66264 19.1929 5.27173 19.1929 5.2362C19.1929 5.12958 18.6959 4.22536 18.6367 4.22536C18.617 4.22536 18.6012 4.20562 18.6012 4.17798C18.6012 4.15428 18.5578 4.07531 18.5026 4.00424C18.4474 3.93316 18.404 3.86209 18.404 3.8463C18.404 3.78707 17.7374 3.00525 17.41 2.67752C17.2206 2.49193 16.9406 2.24317 16.7867 2.12866C16.6368 2.01416 16.5106 1.90754 16.5106 1.8878C16.5106 1.87201 16.4909 1.85621 16.4633 1.85621C16.4396 1.85621 16.3923 1.82857 16.3568 1.79304C16.2897 1.72986 15.9505 1.50479 15.7217 1.37844C15.6468 1.335 15.5205 1.26393 15.4456 1.21654C15.0433 0.975681 13.8165 0.434726 13.6627 0.434726C13.6311 0.434726 13.4654 0.399188 13.2919 0.355754C12.9132 0.25704 12.2032 0.158325 11.8797 0.158325C11.5642 0.158325 10.7792 0.264937 10.5544 0.332063C10.4558 0.363651 10.3217 0.399188 10.2507 0.414983C9.98637 0.466314 9.08702 0.979629 8.81484 1.22839C8.75962 1.27972 8.60973 1.41792 8.4835 1.53638C8.07327 1.91149 7.45792 2.79992 7.33959 3.19873C7.32381 3.25401 7.28831 3.35272 7.2607 3.4159C7.12658 3.72784 6.98853 4.35171 6.90569 5.03482C6.85441 5.44547 7.05164 6.45631 7.28831 6.98541C7.42242 7.28551 7.32381 7.42371 7.06347 7.28945C6.88597 7.19864 6.63352 7.11572 6.20356 7.00911C5.6395 6.86696 4.82298 6.86696 4.21552 7.00911C3.77768 7.11572 3.34378 7.25392 3.27672 7.31315C3.257 7.32894 3.21361 7.34473 3.17811 7.34473C3.04399 7.34868 2.56276 7.62508 2.26692 7.86595C2.16436 7.94887 2.06181 8.01599 2.03814 8.01599C1.95531 8.01599 1.04806 8.9676 1.04806 9.05842C1.04806 9.07816 0.97706 9.18872 0.890282 9.30323C0.807446 9.41379 0.724611 9.55199 0.708832 9.61122C0.696999 9.6665 0.661497 9.72968 0.629942 9.75732C0.598385 9.78101 0.574718 9.82444 0.574718 9.84813C0.574718 9.87182 0.551052 9.93895 0.519495 9.99818C0.42877 10.168 0.2631 10.8866 0.215767 11.3131C0.172377 11.7079 0.192099 12.3989 0.259155 12.7543C0.491882 13.9981 0.862669 14.8865 1.65946 16.1106C1.79752 16.3159 1.96319 16.5449 2.03025 16.6199C2.09731 16.691 2.15253 16.77 2.15253 16.7897C2.15253 16.8411 3.186 17.8756 3.36745 18.0098C3.44239 18.0612 3.52917 18.1322 3.56467 18.1638C3.67118 18.2626 3.91968 18.4402 3.95124 18.4402C3.99068 18.4402 4.27469 18.6337 4.36147 18.7166C4.44825 18.7996 5.25293 19.1905 5.46594 19.2497C5.52116 19.2655 5.59216 19.301 5.62372 19.3287C5.74205 19.4274 6.63746 19.7038 7.04375 19.763C7.98649 19.9052 9.15802 19.9604 10.0416 19.8973Z" fill="#FCE3EC"/>
<path d="M34.1387 19.7394C34.4306 19.7236 34.7343 19.6999 34.8092 19.6841C34.8842 19.6722 35.0459 19.6446 35.1682 19.6248C35.4246 19.5775 35.9374 19.4195 36.178 19.309C36.2727 19.2655 36.3673 19.23 36.3949 19.23C36.4226 19.226 36.5172 19.1945 36.604 19.151C36.6908 19.1076 36.7894 19.076 36.821 19.072C36.8565 19.072 36.8998 19.0563 36.9196 19.0365C36.9432 19.0168 37.0221 18.9812 37.101 18.9575C37.1799 18.9338 37.385 18.8154 37.5665 18.6969C37.744 18.5824 37.9215 18.4758 37.9609 18.46C38.0004 18.4482 38.0635 18.4047 38.1029 18.3613C38.1424 18.3179 38.1897 18.2823 38.2094 18.2823C38.308 18.2823 38.9786 17.7295 39.4677 17.2439C39.732 16.9833 40.4499 16.1106 40.5643 15.9132C40.5959 15.8579 40.6826 15.7 40.7576 15.5578C40.8365 15.4157 40.9193 15.2854 40.9509 15.2696C40.9785 15.2538 41.0022 15.2222 41.0022 15.2064C41.0022 15.1866 41.0613 15.0721 41.1363 14.9537C41.2073 14.8313 41.3256 14.5667 41.3966 14.3653C41.4676 14.164 41.5504 13.9547 41.5781 13.8994C41.6254 13.8086 41.7477 13.4137 41.8857 12.9123C41.9765 12.5924 42.0277 11.7356 41.9843 11.2183C41.9291 10.5076 41.8266 10.172 41.4479 9.41778C41.2546 9.03477 41.152 8.88077 40.9627 8.69519C40.8996 8.62806 40.8444 8.56489 40.8444 8.54909C40.8444 8.52145 40.3276 8.00814 40.2132 7.92127C40.1817 7.89363 40.0634 7.80281 39.9569 7.71199C39.5545 7.38426 38.6315 6.9894 37.9333 6.84726C37.5112 6.76039 37.3732 6.74854 36.8486 6.76434C36.107 6.78013 35.5745 6.89464 35.1169 7.13155C34.9867 7.19868 34.8526 7.20263 34.825 7.1355C34.8171 7.10786 34.8408 6.9894 34.8802 6.87095C34.9236 6.75249 35.0104 6.49583 35.0775 6.2984C35.3812 5.40997 35.3339 4.34781 34.9473 3.35671C34.9157 3.28169 34.8802 3.17508 34.8645 3.1198C34.8171 2.93816 34.6002 2.50777 34.4385 2.27875C34.3477 2.1524 34.257 2.01815 34.2373 1.97866C34.0677 1.69041 32.9908 0.711168 32.8409 0.711168C32.8173 0.711168 32.7975 0.699322 32.7975 0.683528C32.7975 0.647991 32.4662 0.474253 32.1861 0.363693C31.1684 -0.0430101 29.9417 -0.114085 28.9516 0.17811C28.7781 0.229442 28.4862 0.308413 28.3008 0.359745C27.8905 0.466356 26.8176 0.98362 26.3285 1.3074C26.1352 1.43376 25.9656 1.54037 25.9498 1.54037C25.9222 1.54037 25.2438 2.08527 24.9913 2.31034C24.9203 2.37352 24.7704 2.52356 24.656 2.64202C24.5456 2.76048 24.4193 2.89473 24.376 2.93816C24.1787 3.13954 23.804 3.63311 23.6857 3.84239C23.6186 3.96479 23.5437 4.06746 23.5239 4.06746C23.5042 4.06746 23.4884 4.09115 23.4884 4.12274C23.4884 4.15038 23.4608 4.19776 23.4253 4.22935C23.374 4.27278 23.0624 4.88876 22.9165 5.23229C22.8928 5.29941 22.8336 5.42972 22.7863 5.52843C22.4313 6.3142 22.2617 7.33688 22.238 8.8097C22.2222 9.74156 22.2301 9.87976 22.3248 10.5273C22.451 11.4197 22.5851 12.008 22.8021 12.6556C22.9559 13.1255 23.3149 13.9823 23.4766 14.2627C23.5673 14.4325 23.6462 14.5825 23.6462 14.5983C23.6462 14.6141 23.6817 14.6733 23.7251 14.7286C23.7685 14.7839 23.804 14.851 23.804 14.8787C23.804 14.9063 23.8592 15.009 23.9223 15.1077C24.0091 15.2301 24.0722 15.2814 24.1393 15.2814C24.1906 15.2814 24.2418 15.2656 24.2537 15.2459C24.2655 15.2261 24.3799 15.1511 24.5061 15.084C24.6284 15.0129 24.7389 14.9418 24.7507 14.93C24.7901 14.8826 25.3897 14.4917 25.4252 14.4917C25.4449 14.4917 25.5909 14.3969 25.7487 14.2824C25.9025 14.164 26.0839 14.0376 26.151 14.0021C26.2141 13.9665 26.3167 13.9073 26.3758 13.8678C26.4311 13.8323 26.5849 13.7415 26.7111 13.6664C26.8373 13.5954 26.9478 13.5203 26.9596 13.5085C26.9991 13.4611 27.4645 13.165 27.6578 13.0623C27.7091 13.0386 27.7485 13.0031 27.7485 12.9833C27.7485 12.9675 27.7683 12.9518 27.7919 12.9518C27.8393 12.9518 28.1943 12.7109 28.214 12.6675C28.2219 12.6477 28.2455 12.6359 28.2692 12.6359C28.2929 12.6359 28.3718 12.5924 28.4428 12.5372C28.5138 12.4819 28.5808 12.4384 28.5966 12.4384C28.6084 12.4384 28.6676 12.4069 28.7268 12.3634C28.7859 12.3239 28.9556 12.2094 29.1094 12.1147C29.2593 12.0159 29.5946 11.8027 29.847 11.6329C30.1034 11.4671 30.3164 11.3328 30.3283 11.3328C30.3361 11.3328 30.4781 11.246 30.6399 11.1354C30.9594 10.9222 31.0619 10.8945 31.0619 11.017C31.0619 11.0959 30.8963 11.3881 30.8055 11.471C30.7582 11.5184 30.4308 12.0317 30.4308 12.0633C30.4308 12.0752 30.3993 12.1344 30.3598 12.1936C30.3164 12.2529 30.2336 12.3792 30.1744 12.4779C30.1113 12.5766 30.0403 12.6754 30.0166 12.6951C29.9732 12.7385 29.851 12.9202 29.776 13.0505C29.7524 13.0939 29.6971 13.1926 29.6498 13.2676C29.6025 13.3427 29.5354 13.4611 29.4999 13.5243C29.4644 13.5914 29.3776 13.7138 29.3066 13.8007C29.2396 13.8876 29.1567 14.0021 29.1291 14.0574C29.1015 14.1126 29.066 14.164 29.0542 14.1758C29.0423 14.1877 28.9792 14.2982 28.9161 14.4206C28.8491 14.547 28.7741 14.6575 28.7465 14.6654C28.7189 14.6773 28.6952 14.7128 28.6952 14.7405C28.6952 14.772 28.6716 14.8194 28.64 14.8431C28.6124 14.8668 28.4585 15.0958 28.3008 15.3525C28.1469 15.6052 27.9497 15.9132 27.8629 16.0316C27.7801 16.1501 27.7091 16.2607 27.7091 16.2725C27.7091 16.2883 27.6105 16.4423 27.4921 16.62C27.3738 16.7977 27.2752 16.9517 27.2752 16.9675C27.2752 16.9793 27.2042 17.0859 27.1174 17.2004C27.0306 17.3149 26.9596 17.4215 26.9596 17.4334C26.9596 17.4452 26.8926 17.5558 26.8137 17.6743L26.6677 17.8954L26.7782 17.9862C26.8413 18.0375 26.9399 18.1007 26.9951 18.1323C27.0503 18.1599 27.1056 18.1915 27.1174 18.2034C27.1292 18.2152 27.2594 18.2823 27.4132 18.3534C27.5631 18.4284 27.717 18.5035 27.7485 18.5232C27.7801 18.5429 27.8511 18.5785 27.9063 18.6022C27.9615 18.6259 28.0325 18.6614 28.0641 18.6811C28.2889 18.8114 28.5019 18.9023 28.9319 19.0523C29.2041 19.1431 29.4762 19.2339 29.5433 19.2458C29.6064 19.2616 29.7484 19.305 29.8589 19.3445C30.1389 19.4511 30.4032 19.5143 31.0619 19.6446C31.6655 19.763 33.0224 19.8065 34.1387 19.7394Z" fill="#FCE3EC"/>
</svg>
